<?xml version="1.0" encoding="UTF-8"?>
<svg id="Layer_1" xmlns="http://www.w3.org/2000/svg" xmlns:xlink="http://www.w3.org/1999/xlink" version="1.1" viewBox="0 0 310.2 244">
  <!-- Generator: Adobe Illustrator 29.3.0, SVG Export Plug-In . SVG Version: 2.1.0 Build 146)  -->
  <defs>
    <style>
      .st0 {
        fill: none;
      }

      .st1 {
        fill: #38a70c;
      }

      .st2 {
        fill: #9b1a16;
      }

      .st3 {
        fill: #62c83a;
      }

      .st4 {
        fill: #fff;
      }

      .st5 {
        fill: #051b4c;
      }

      .st6 {
        clip-path: url(#clippath);
      }
    </style>
    <clipPath id="clippath">
      <path class="st0" d="M155.1,101.7c47.9,0,47.1-22.6,47.1-50.8S203,0,155.1,0s-47.1,22.6-47.1,50.8-.9,50.8,47.1,50.8Z"/>
    </clipPath>
  </defs>
  <g>
    <path class="st4" d="M88.5,173.8h15.5c.7,0,1.3-.6,1.3-1.3v-7.8c0-.7-.6-1.3-1.3-1.3h-15.5c-6.5,0-8.2-.8-8.6-7.7h23.2c.7,0,1.3-.6,1.3-1.3v-7.5c0-.7-.6-1.3-1.3-1.3h-23.2c.4-6.6,2.2-7.3,8.6-7.3h15.5c.7,0,1.3-.6,1.3-1.3v-8c0-.7-.6-1.3-1.3-1.3h-15.5c-21.7,0-21.3,10.3-21.3,23.2s-.4,23.2,21.3,23.2Z"/>
    <path class="st4" d="M130.1,173.8c17.6,0,20.7-6.8,21.2-16.2,0-.8-.6-1.4-1.3-1.4h-10.1c-.7,0-1.3.5-1.3,1.2-.6,5.2-2.6,5.9-8.5,5.9s-8.7-1.2-8.7-12.6c0-11.4.9-12.6,8.7-12.6s7.7.7,8.4,5.6c.1.7.7,1.2,1.3,1.2h10.1c.8,0,1.4-.7,1.3-1.4-.6-9.3-3.8-15.9-21.2-15.9s-21.3,10.3-21.3,23.2-.3,23.2,21.4,23.2Z"/>
    <path class="st4" d="M186.1,127.6c-1.2,0-2.3,1-2.3,2.3v14.9h-16.1v-15c0-1.2-1-2.3-2.3-2.3h-7.9c-1.2,0-2.3,1-2.3,2.3v41.7c0,1.2,1,2.3,2.3,2.3h7.9c1.2,0,2.3-1,2.3-2.3v-15.1h16.1v15.1c0,1.2,1,2.3,2.3,2.3h7.9c1.2,0,2.3-1,2.3-2.3v-41.7c0-1.2-1-2.3-2.3-2.3h-7.9Z"/>
    <path class="st4" d="M221.7,173.8c21.7,0,21.3-10.3,21.3-23.2s.4-23.2-21.3-23.2-21.3,10.3-21.3,23.2c0,13-.4,23.2,21.3,23.2ZM221.7,138c7.8,0,8.7,1.2,8.7,12.6s-.9,12.6-8.7,12.6-8.7-1.2-8.7-12.6c0-11.4.9-12.6,8.7-12.6Z"/>
  </g>
  <g>
    <path class="st3" d="M11.4,244H1c-.6,0-1-.4-1-1v-44.5c0-.6.4-1,1-1h17.9c.4,0,.8.3,1,.7l8.7,28.5h.4l8.2-28.5c.1-.4.5-.7,1-.7h18.4c.6,0,1,.4,1,1v44.5c0,.6-.4,1-1,1h-10.4c-.6,0-1-.5-1-1l1.2-34.6h-.4l-11.6,35c-.1.4-.5.7-.9.7h-9.3c-.4,0-.8-.3-.9-.7l-11.7-35h-.4l1.2,34.6c0,.6-.4,1-1,1Z"/>
    <path class="st3" d="M76.5,244h-10.4c-.6,0-1-.4-1-1v-44.5c0-.6.4-1,1-1h10.4c.6,0,1,.4,1,1v44.5c0,.6-.4,1-1,1Z"/>
    <path class="st3" d="M97.3,233.2h18.4c.6,0,1,.4,1,1v8.8c0,.6-.4,1-1,1h-29.8c-.6,0-1-.4-1-1v-44.5c0-.6.4-1,1-1h10.4c.6,0,1,.4,1,1v34.7Z"/>
    <path class="st3" d="M132.9,244h-10.4c-.6,0-1-.4-1-1v-44.5c0-.6.4-1,1-1h10.4c.6,0,1,.4,1,1v44.5c0,.6-.4,1-1,1Z"/>
    <path class="st3" d="M161.1,244h-10.4c-.6,0-1-.4-1-1v-34.7h-10.9c-.6,0-1-.4-1-1v-8.8c0-.6.4-1,1-1h34.8c.6,0,1,.4,1,1v8.8c0,.6-.4,1-1,1h-11.5v34.7c0,.6-.4,1-1,1Z"/>
    <path class="st3" d="M189,236l-2.1,7.3c-.1.4-.5.7-1,.7h-10.8c-.7,0-1.2-.6-1-1.3l13.3-44.5c.1-.4.5-.7,1-.7h17.4c.4,0,.8.3,1,.7l13.5,44.5c.2.6-.3,1.3-1,1.3h-10.6c-.4,0-.8-.3-1-.7l-2.2-7.3h-16.7ZM197.5,206.8h-.1l-5.6,20.1h11.5l-5.8-20.1Z"/>
    <path class="st3" d="M223.6,198.5c0-.6.4-1,1-1h22.9c10.7.2,16,2.5,16,14.1s0,12.3-8.8,14.3v.5c5.1.2,8.4,3,8.4,8.2v8.4c0,.6-.4,1-1,1h-10.4c-.6,0-1-.4-1-1v-5.5c.1-3.5-1.4-5.8-5.1-5.8h-9.6v11.3c0,.6-.4,1-1,1h-10.4c-.6,0-1-.4-1-1v-44.5ZM245.6,220.9c5.3,0,5.1-2,5.1-7.3s-1.1-5.3-5.1-5.3h-9.6v12.6h9.6Z"/>
    <path class="st3" d="M293.9,227.7v15.3c0,.6-.4,1-1,1h-10.4c-.6,0-1-.4-1-1v-15.3l-15.7-28.7c-.4-.7.1-1.5.9-1.5h11.9c.4,0,.7.2.9.6l8,17.3h.4l8.3-17.3c.2-.3.5-.6.9-.6h12c.8,0,1.2.8.9,1.5l-16.1,28.7Z"/>
  </g>
  <g>
    <path class="st1" d="M155.1,101.7c47.9,0,47.1-22.6,47.1-50.8S203,0,155.1,0s-47.1,22.6-47.1,50.8-.9,50.8,47.1,50.8Z"/>
    <g class="st6">
      <g id="Flag_7">
        <g>
          <rect class="st2" x="84.6" y="-1.1" width="159.7" height="7.5"/>
          <rect class="st4" x="84.6" y="6.4" width="159.7" height="7.5"/>
          <rect class="st2" x="84.6" y="13.9" width="159.7" height="7.5"/>
          <rect class="st4" x="84.6" y="21.3" width="159.7" height="7.5"/>
          <rect class="st2" x="84.6" y="28.8" width="159.7" height="7.5"/>
          <rect class="st4" x="84.6" y="36.3" width="159.7" height="7.5"/>
          <rect class="st2" x="84.6" y="43.8" width="159.7" height="7.5"/>
          <rect class="st4" x="84.6" y="51.3" width="159.7" height="7.5"/>
          <rect class="st2" x="84.6" y="58.8" width="159.7" height="7.5"/>
          <rect class="st4" x="84.6" y="66.3" width="159.7" height="7.5"/>
          <rect class="st2" x="84.6" y="73.7" width="159.7" height="7.5"/>
          <rect class="st4" x="84.6" y="81.2" width="159.7" height="7.5"/>
          <rect class="st2" x="84.6" y="88.7" width="159.7" height="13.5"/>
          <rect class="st4" x="84.6" y="95.8" width="159.7" height="7.5"/>
        </g>
        <g>
          <rect class="st5" x="84.6" y="-1.1" width="66.7" height="52.4"/>
          <g>
            <polygon class="st4" points="89.7 1.3 90.4 3.3 92.6 3.3 90.8 4.6 91.5 6.7 89.7 5.4 88 6.7 88.6 4.6 86.9 3.3 89 3.3 89.7 1.3"/>
            <polygon class="st4" points="101 1.3 101.7 3.3 103.9 3.3 102.1 4.6 102.8 6.7 101 5.4 99.3 6.7 99.9 4.6 98.2 3.3 100.3 3.3 101 1.3"/>
            <polygon class="st4" points="112.3 1.3 113 3.3 115.2 3.3 113.4 4.6 114.1 6.7 112.3 5.4 110.5 6.7 111.2 4.6 109.5 3.3 111.6 3.3 112.3 1.3"/>
            <polygon class="st4" points="123.6 1.3 124.3 3.3 126.5 3.3 124.7 4.6 125.4 6.7 123.6 5.4 121.8 6.7 122.5 4.6 120.8 3.3 122.9 3.3 123.6 1.3"/>
            <polygon class="st4" points="134.9 1.3 135.6 3.3 137.8 3.3 136 4.6 136.7 6.7 134.9 5.4 133.1 6.7 133.8 4.6 132.1 3.3 134.2 3.3 134.9 1.3"/>
            <polygon class="st4" points="146.2 1.3 146.9 3.3 149.1 3.3 147.3 4.6 148 6.7 146.2 5.4 144.4 6.7 145.1 4.6 143.4 3.3 145.5 3.3 146.2 1.3"/>
            <g>
              <g>
                <polygon class="st4" points="95 6.5 95.7 8.6 97.9 8.6 96.1 9.9 96.8 11.9 95 10.6 93.2 11.9 93.9 9.9 92.1 8.6 94.3 8.6 95 6.5"/>
                <polygon class="st4" points="106.3 6.5 107 8.6 109.2 8.6 107.4 9.9 108.1 11.9 106.3 10.6 104.5 11.9 105.2 9.9 103.4 8.6 105.6 8.6 106.3 6.5"/>
                <polygon class="st4" points="117.6 6.5 118.3 8.6 120.5 8.6 118.7 9.9 119.4 11.9 117.6 10.6 115.8 11.9 116.5 9.9 114.7 8.6 116.9 8.6 117.6 6.5"/>
                <polygon class="st4" points="128.9 6.5 129.6 8.6 131.7 8.6 130 9.9 130.7 11.9 128.9 10.6 127.1 11.9 127.8 9.9 126 8.6 128.2 8.6 128.9 6.5"/>
                <polygon class="st4" points="140.2 6.5 140.9 8.6 143 8.6 141.3 9.9 142 11.9 140.2 10.6 138.4 11.9 139.1 9.9 137.3 8.6 139.5 8.6 140.2 6.5"/>
              </g>
              <g>
                <polygon class="st4" points="95 17.3 95.7 19.4 97.9 19.4 96.1 20.7 96.8 22.8 95 21.5 93.2 22.8 93.9 20.7 92.1 19.4 94.3 19.4 95 17.3"/>
                <polygon class="st4" points="106.3 17.3 107 19.4 109.2 19.4 107.4 20.7 108.1 22.8 106.3 21.5 104.5 22.8 105.2 20.7 103.4 19.4 105.6 19.4 106.3 17.3"/>
                <polygon class="st4" points="117.6 17.3 118.3 19.4 120.5 19.4 118.7 20.7 119.4 22.8 117.6 21.5 115.8 22.8 116.5 20.7 114.7 19.4 116.9 19.4 117.6 17.3"/>
                <polygon class="st4" points="128.9 17.3 129.6 19.4 131.7 19.4 130 20.7 130.7 22.8 128.9 21.5 127.1 22.8 127.8 20.7 126 19.4 128.2 19.4 128.9 17.3"/>
                <polygon class="st4" points="140.2 17.3 140.9 19.4 143 19.4 141.3 20.7 142 22.8 140.2 21.5 138.4 22.8 139.1 20.7 137.3 19.4 139.5 19.4 140.2 17.3"/>
              </g>
              <g>
                <polygon class="st4" points="95 28.2 95.7 30.3 97.9 30.3 96.1 31.5 96.8 33.6 95 32.3 93.2 33.6 93.9 31.5 92.1 30.3 94.3 30.3 95 28.2"/>
                <polygon class="st4" points="106.3 28.2 107 30.3 109.2 30.3 107.4 31.5 108.1 33.6 106.3 32.3 104.5 33.6 105.2 31.5 103.4 30.3 105.6 30.3 106.3 28.2"/>
                <polygon class="st4" points="117.6 28.2 118.3 30.3 120.5 30.3 118.7 31.5 119.4 33.6 117.6 32.3 115.8 33.6 116.5 31.5 114.7 30.3 116.9 30.3 117.6 28.2"/>
                <polygon class="st4" points="128.9 28.2 129.6 30.3 131.7 30.3 130 31.5 130.7 33.6 128.9 32.3 127.1 33.6 127.8 31.5 126 30.3 128.2 30.3 128.9 28.2"/>
                <polygon class="st4" points="140.2 28.2 140.9 30.3 143 30.3 141.3 31.5 142 33.6 140.2 32.3 138.4 33.6 139.1 31.5 137.3 30.3 139.5 30.3 140.2 28.2"/>
              </g>
              <g>
                <polygon class="st4" points="95 38.7 95.7 40.8 97.9 40.8 96.1 42.1 96.8 44.2 95 42.9 93.2 44.2 93.9 42.1 92.1 40.8 94.3 40.8 95 38.7"/>
                <polygon class="st4" points="106.3 38.7 107 40.8 109.2 40.8 107.4 42.1 108.1 44.2 106.3 42.9 104.5 44.2 105.2 42.1 103.4 40.8 105.6 40.8 106.3 38.7"/>
                <polygon class="st4" points="117.6 38.7 118.3 40.8 120.5 40.8 118.7 42.1 119.4 44.2 117.6 42.9 115.8 44.2 116.5 42.1 114.7 40.8 116.9 40.8 117.6 38.7"/>
                <polygon class="st4" points="128.9 39 129.6 41.1 131.7 41.1 130 42.4 130.7 44.4 128.9 43.2 127.1 44.4 127.8 42.4 126 41.1 128.2 41.1 128.9 39"/>
                <polygon class="st4" points="140.2 38.7 140.9 40.8 143 40.8 141.3 42.1 142 44.2 140.2 42.9 138.4 44.2 139.1 42.1 137.3 40.8 139.5 40.8 140.2 38.7"/>
              </g>
            </g>
            <polygon class="st4" points="89.7 11.8 90.4 13.9 92.6 13.9 90.8 15.2 91.5 17.3 89.7 16 88 17.3 88.6 15.2 86.9 13.9 89 13.9 89.7 11.8"/>
            <polygon class="st4" points="101 11.8 101.7 13.9 103.9 13.9 102.1 15.2 102.8 17.3 101 16 99.3 17.3 99.9 15.2 98.2 13.9 100.3 13.9 101 11.8"/>
            <polygon class="st4" points="112.3 11.8 113 13.9 115.2 13.9 113.4 15.2 114.1 17.3 112.3 16 110.5 17.3 111.2 15.2 109.5 13.9 111.6 13.9 112.3 11.8"/>
            <polygon class="st4" points="123.6 11.8 124.3 13.9 126.5 13.9 124.7 15.2 125.4 17.3 123.6 16 121.8 17.3 122.5 15.2 120.8 13.9 122.9 13.9 123.6 11.8"/>
            <polygon class="st4" points="134.9 11.8 135.6 13.9 137.8 13.9 136 15.2 136.7 17.3 134.9 16 133.1 17.3 133.8 15.2 132.1 13.9 134.2 13.9 134.9 11.8"/>
            <polygon class="st4" points="146.2 11.8 146.9 13.9 149.1 13.9 147.3 15.2 148 17.3 146.2 16 144.4 17.3 145.1 15.2 143.4 13.9 145.5 13.9 146.2 11.8"/>
            <g>
              <polygon class="st4" points="89.7 22.4 90.4 24.4 92.6 24.4 90.8 25.7 91.5 27.8 89.7 26.5 88 27.8 88.6 25.7 86.9 24.4 89 24.4 89.7 22.4"/>
              <polygon class="st4" points="101 22.4 101.7 24.4 103.9 24.4 102.1 25.7 102.8 27.8 101 26.5 99.3 27.8 99.9 25.7 98.2 24.4 100.3 24.4 101 22.4"/>
              <polygon class="st4" points="112.3 22.4 113 24.4 115.2 24.4 113.4 25.7 114.1 27.8 112.3 26.5 110.5 27.8 111.2 25.7 109.5 24.4 111.6 24.4 112.3 22.4"/>
              <polygon class="st4" points="123.6 22.4 124.3 24.4 126.5 24.4 124.7 25.7 125.4 27.8 123.6 26.5 121.8 27.8 122.5 25.7 120.8 24.4 122.9 24.4 123.6 22.4"/>
              <polygon class="st4" points="134.9 22.4 135.6 24.4 137.8 24.4 136 25.7 136.7 27.8 134.9 26.5 133.1 27.8 133.8 25.7 132.1 24.4 134.2 24.4 134.9 22.4"/>
              <polygon class="st4" points="146.2 22.4 146.9 24.4 149.1 24.4 147.3 25.7 148 27.8 146.2 26.5 144.4 27.8 145.1 25.7 143.4 24.4 145.5 24.4 146.2 22.4"/>
            </g>
            <g>
              <polygon class="st4" points="89.7 32.9 90.4 35 92.6 35 90.8 36.3 91.5 38.4 89.7 37.1 88 38.4 88.6 36.3 86.9 35 89 35 89.7 32.9"/>
              <polygon class="st4" points="101 32.9 101.7 35 103.9 35 102.1 36.3 102.8 38.4 101 37.1 99.3 38.4 99.9 36.3 98.2 35 100.3 35 101 32.9"/>
              <polygon class="st4" points="112.3 32.9 113 35 115.2 35 113.4 36.3 114.1 38.4 112.3 37.1 110.5 38.4 111.2 36.3 109.5 35 111.6 35 112.3 32.9"/>
              <polygon class="st4" points="123.6 32.9 124.3 35 126.5 35 124.7 36.3 125.4 38.4 123.6 37.1 121.8 38.4 122.5 36.3 120.8 35 122.9 35 123.6 32.9"/>
              <polygon class="st4" points="134.9 32.9 135.6 35 137.8 35 136 36.3 136.7 38.4 134.9 37.1 133.1 38.4 133.8 36.3 132.1 35 134.2 35 134.9 32.9"/>
              <polygon class="st4" points="146.2 32.9 146.9 35 149.1 35 147.3 36.3 148 38.4 146.2 37.1 144.4 38.4 145.1 36.3 143.4 35 145.5 35 146.2 32.9"/>
            </g>
            <g>
              <polygon class="st4" points="89.7 43.5 90.4 45.5 92.6 45.5 90.8 46.8 91.5 48.9 89.7 47.6 88 48.9 88.6 46.8 86.9 45.5 89 45.5 89.7 43.5"/>
              <polygon class="st4" points="101 43.5 101.7 45.5 103.9 45.5 102.1 46.8 102.8 48.9 101 47.6 99.3 48.9 99.9 46.8 98.2 45.5 100.3 45.5 101 43.5"/>
              <polygon class="st4" points="112.3 43.5 113 45.5 115.2 45.5 113.4 46.8 114.1 48.9 112.3 47.6 110.5 48.9 111.2 46.8 109.5 45.5 111.6 45.5 112.3 43.5"/>
              <polygon class="st4" points="123.6 43.5 124.3 45.5 126.5 45.5 124.7 46.8 125.4 48.9 123.6 47.6 121.8 48.9 122.5 46.8 120.8 45.5 122.9 45.5 123.6 43.5"/>
              <polygon class="st4" points="134.9 43.5 135.6 45.5 137.8 45.5 136 46.8 136.7 48.9 134.9 47.6 133.1 48.9 133.8 46.8 132.1 45.5 134.2 45.5 134.9 43.5"/>
              <polygon class="st4" points="146.2 43.5 146.9 45.5 149.1 45.5 147.3 46.8 148 48.9 146.2 47.6 144.4 48.9 145.1 46.8 143.4 45.5 145.5 45.5 146.2 43.5"/>
            </g>
          </g>
        </g>
      </g>
    </g>
  </g>
</svg>