<?xml version="1.0" encoding="UTF-8"?>
<svg id="Layer_1" data-name="Layer 1" xmlns="http://www.w3.org/2000/svg" version="1.1" viewBox="0 0 464.6 63.6">
  <defs>
    <style>
      .cls-1 {
        fill: #6bbe45;
      }

      .cls-1, .cls-2, .cls-3, .cls-4 {
        stroke-width: 0px;
      }

      .cls-2 {
        fill: #171f4b;
      }

      .cls-3 {
        fill: #39a848;
      }

      .cls-4 {
        fill: #fff;
      }
    </style>
  </defs>
  <g>
    <path class="cls-1" d="M260.1,9.7c0-.6.5-1.1,1.1-1.1h22.3c12.9,0,18.7,4.8,18.7,18v9.7c0,12.7-4.1,18.7-17,18.7h-24c-.6,0-1.1-.5-1.1-1.1V9.7h0ZM272.5,43.1c0,.6.5,1.1,1.1,1.1h9.7c4.6,0,6.2-3,6.2-7.9v-9.7c0-6-1.9-7.2-6.2-7.2h-9.7c-.6,0-1.1.5-1.1,1.1v22.6Z"/>
    <path class="cls-1" d="M307,9.8c0-.7.6-1.3,1.3-1.3h22.6c10.7.2,15.9,2.5,15.9,14s0,12.2-8.6,14.2c-.1,0-.2,0-.2.3h0c0,.2.1.3.3.3,4.9.3,8.1,3,8.1,8.2v8.1c0,.7-.6,1.3-1.3,1.3h-9.8c-.7,0-1.3-.6-1.3-1.3v-5.2c.1-3.5-1.4-5.8-5.1-5.8h-8.3c-.7,0-1.3.6-1.3,1.3v9.7c0,.7-.6,1.3-1.3,1.3h-9.8c-.7,0-1.3-.6-1.3-1.3V9.8h0ZM328.9,31.8c5.3,0,5.1-2,5.1-7.2s-1.1-5.3-5.1-5.3h-8.3c-.7,0-1.3.6-1.3,1.3v10c0,.7.6,1.3,1.3,1.3h8.3Z"/>
    <path class="cls-1" d="M363.2,54.9h-10c-.7,0-1.2-.5-1.2-1.2V9.7c0-.7.5-1.2,1.2-1.2h10c.7,0,1.2.5,1.2,1.2v43.9c0,.8-.4,1.3-1.2,1.3Z"/>
    <path class="cls-1" d="M401.4,8.5h10.2c.8,0,1.4.8,1.2,1.6l-12.8,44c-.2.5-.6.9-1.2.9h-17.4c-.5,0-1-.4-1.2-.9l-12.4-43.9c-.2-.8.4-1.6,1.2-1.6h10c.5,0,1,.4,1.2.9l9.8,34.8h.4l9.9-34.8c.1-.6.6-1,1.1-1Z"/>
    <path class="cls-1" d="M430.2,27.1h16.7c.8,0,1.5.7,1.5,1.5v5.5c0,.8-.7,1.5-1.5,1.5h-16.7c-.8,0-1.5.7-1.5,1.5v6c0,.8.7,1.5,1.5,1.5h18.4c.8,0,1.5.7,1.5,1.5v7.1c0,.8-.7,1.5-1.5,1.5h-30.8c-.8,0-1.5-.7-1.5-1.5V10.1c0-.8.7-1.5,1.5-1.5h30.4c.8,0,1.5.7,1.5,1.5v7.1c0,.8-.7,1.5-1.5,1.5h-18c-.8,0-1.5.7-1.5,1.5v5.4c-.1.8.6,1.5,1.5,1.5Z"/>
  </g>
  <path class="cls-1" d="M459.7,18.6c-2.7,0-4.9-2.2-4.9-4.9s2.2-4.9,4.9-4.9,4.9,2.2,4.9,4.9-2.2,4.9-4.9,4.9ZM455.1,13.6c0,2.5,2.1,4.6,4.6,4.6s4.6-2.1,4.6-4.6-2.1-4.6-4.6-4.6-4.6,2.1-4.6,4.6ZM457.9,11.1c.4-.1,1-.1,1.6-.1,1.8,0,2.2.8,2.2,1.4s-.5,1.2-1.2,1.3h0c.5.1.8.5.9.9.2.8.4,1.3.5,1.5h-.7c-.1-.1-.2-.5-.4-1.3-.2-.6-.5-.9-1.2-1h-1v2.3h-.6v-5h-.1ZM458.6,13.4h1.1c.9,0,1.3-.4,1.3-1s-.5-1-1.5-1-.8,0-1,.1v1.9h.1Z"/>
  <g>
    <path class="cls-4" d="M96.8,55.1h15.5c.7,0,1.3-.6,1.3-1.3v-7.8c0-.7-.6-1.3-1.3-1.3h-15.5c-6.5,0-8.2-.8-8.6-7.7h23.2c.7,0,1.3-.6,1.3-1.3v-7.7c0-.7-.6-1.3-1.3-1.3h-23.2c.4-6.6,2.2-7.3,8.6-7.3h15.5c.7,0,1.3-.6,1.3-1.3v-8c0-.7-.6-1.3-1.3-1.3h-15.5c-21.7-.1-21.3,10.2-21.3,23.1s-.4,23.2,21.3,23.2Z"/>
    <path class="cls-4" d="M138.4,55.1c17.6,0,20.7-6.8,21.2-16.2.1-.8-.6-1.4-1.3-1.4h-10.1c-.7,0-1.3.5-1.3,1.2-.6,5.2-2.6,5.9-8.5,5.9s-8.7-1.2-8.7-12.6.9-12.6,8.7-12.6,7.7.7,8.4,5.6c.1.7.7,1.2,1.3,1.2h10.1c.8,0,1.4-.7,1.3-1.4-.6-9.3-3.8-15.9-21.2-15.9s-21.3,10.3-21.3,23.2c.1,12.8-.2,23,21.4,23Z"/>
    <path class="cls-4" d="M194.4,8.8c-1.2,0-2.3,1-2.3,2.3v14.9h-16.1v-15c0-1.2-1-2.3-2.3-2.3h-7.9c-1.2,0-2.3,1-2.3,2.3v41.7c0,1.2,1,2.3,2.3,2.3h7.9c1.2,0,2.3-1,2.3-2.3v-15h16.1v15.1c0,1.2,1,2.3,2.3,2.3h7.9c1.2,0,2.3-1,2.3-2.3V11.1c0-1.2-1-2.3-2.3-2.3h-7.9Z"/>
    <path class="cls-4" d="M230,55.1c21.7,0,21.3-10.3,21.3-23.2s.4-23.2-21.3-23.2-21.3,10.3-21.3,23.2-.4,23.2,21.3,23.2ZM230,19.3c7.8,0,8.7,1.2,8.7,12.6s-.9,12.6-8.7,12.6-8.7-1.2-8.7-12.6.9-12.6,8.7-12.6Z"/>
  </g>
  <g>
    <path class="cls-3" d="M29.4,63.6c29.9,0,29.4-14.1,29.4-31.8S59.4,0,29.4,0,0,14.1,0,31.8s-.5,31.8,29.4,31.8Z"/>
    <path class="cls-1" d="M58.8,31.8c0-6.6,0-12.8-1.4-17.9H1.4C-.1,19,0,25.2,0,31.8s-.1,16.1,3,21.7h52.8c3.2-5.6,3-13.3,3-21.7Z"/>
    <path class="cls-2" d="M29.4,63.6c18,0,25-5.1,27.7-13.1C37.2,24.3,30.3,14.9,29.4,14.3c-.8.6-7.8,10-27.7,36.2,2.7,8,9.7,13.1,27.7,13.1Z"/>
    <g>
      <polygon class="cls-4" points="30 27.4 29 27.4 28.8 30.9 30.3 30.9 30 27.4"/>
      <polygon class="cls-4" points="31.1 45.2 27.7 45.2 26.9 57.5 31.9 57.5 31.1 45.2"/>
      <polygon class="cls-4" points="30.4 33.3 28.6 33.3 28.1 41 30.9 41 30.4 33.3"/>
      <polygon class="cls-4" points="29.7 22.8 29.3 22.8 29.1 25.1 29.8 25.1 29.7 22.8"/>
      <polygon class="cls-4" points="29.5 19.4 29.3 21.2 29.5 21.2 29.5 19.4"/>
    </g>
  </g>
</svg>