<?xml version="1.0" encoding="UTF-8"?>
<svg id="Layer_1" xmlns="http://www.w3.org/2000/svg" version="1.1" viewBox="0 0 589.5 63.6">
  <!-- Generator: Adobe Illustrator 29.4.0, SVG Export Plug-In . SVG Version: 2.1.0 Build 152)  -->
  <defs>
    <style>
      .st0 {
        fill: #fff;
      }
    </style>
  </defs>
  <g>
    <path class="st0" d="M98.4,55h15.5c.7,0,1.3-.6,1.3-1.3v-7.8c0-.7-.6-1.3-1.3-1.3h-15.5c-6.5,0-8.2-.8-8.6-7.7h23.2c.7,0,1.3-.6,1.3-1.3v-7.5c0-.7-.6-1.3-1.3-1.3h-23.2c.4-6.6,2.2-7.3,8.6-7.3h15.5c.7,0,1.3-.6,1.3-1.3v-8c0-.7-.6-1.3-1.3-1.3h-15.5c-21.7,0-21.3,10.3-21.3,23.2s-.4,23.2,21.3,23.2Z"/>
    <path class="st0" d="M140,55c17.6,0,20.7-6.8,21.2-16.2,0-.8-.6-1.4-1.3-1.4h-10.1c-.7,0-1.3.5-1.3,1.2-.6,5.2-2.6,5.9-8.5,5.9s-8.7-1.2-8.7-12.6c0-11.4.9-12.6,8.7-12.6s7.7.7,8.4,5.6c.1.7.7,1.2,1.3,1.2h10.1c.8,0,1.4-.7,1.3-1.4-.6-9.3-3.8-15.9-21.2-15.9s-21.3,10.3-21.3,23.2-.3,23.2,21.4,23.2Z"/>
    <path class="st0" d="M196,8.8c-1.2,0-2.3,1-2.3,2.3v14.9h-16.1v-15c0-1.2-1-2.3-2.3-2.3h-7.9c-1.2,0-2.3,1-2.3,2.3v41.7c0,1.2,1,2.3,2.3,2.3h7.9c1.2,0,2.3-1,2.3-2.3v-15.1h16.1v15.1c0,1.2,1,2.3,2.3,2.3h7.9c1.2,0,2.3-1,2.3-2.3V11.1c0-1.2-1-2.3-2.3-2.3h-7.9Z"/>
    <path class="st0" d="M231.6,55c21.7,0,21.3-10.3,21.3-23.2s.4-23.2-21.3-23.2-21.3,10.3-21.3,23.2c0,13-.4,23.2,21.3,23.2ZM231.6,19.2c7.8,0,8.7,1.2,8.7,12.6s-.9,12.6-8.7,12.6-8.7-1.2-8.7-12.6c0-11.4.9-12.6,8.7-12.6Z"/>
  </g>
  <g>
    <g>
      <path class="st0" d="M283.6,26.9c13.5,1,16.9,2.7,16.9,13.1s.3,15-19.8,15-18.8-.2-19.3-13.7.6-1.5,1.4-1.5h8.8c.7,0,1.4.6,1.5,1.3.3,3.5,2.2,3.9,7.6,3.9s7.6-.4,7.6-4.2-.7-3.9-6.4-4.3l-2.7-.2c-11.3-.8-17.8-.7-17.8-13.8s7.4-13.9,19.3-13.9,18.5.2,18.5,12.8v.4c0,.8-.6,1.4-1.4,1.4h-8.8c-.7,0-1.4-.5-1.5-1.3-.4-3.4-2.4-3.4-6.8-3.4-6.6,0-7.1,1.3-7.1,3.9,0,3.7,1.8,3.8,5,4l5.1.4Z"/>
      <path class="st0" d="M316.9,46.8l-2,6.8c-.2.6-.7,1-1.4,1h-9.6c-1,0-1.7-.9-1.4-1.9l12.8-42.8c.2-.6.7-1,1.4-1h16.4c.6,0,1.2.4,1.4,1l13,42.8c.3.9-.4,1.9-1.4,1.9h-9.4c-.6,0-1.2-.4-1.4-1l-2.1-6.8h-16.4ZM325.1,18.2h-.1l-5.5,19.8h11.3l-5.7-19.8Z"/>
      <path class="st0" d="M361.7,54.7h-9.2c-.8,0-1.4-.6-1.4-1.4V10.5c0-.8.6-1.4,1.4-1.4h16.8c.6,0,1.2.4,1.4,1l8.4,27.6h.4l8-27.6c.2-.6.7-1,1.4-1h17.3c.8,0,1.4.6,1.4,1.4v42.8c0,.8-.6,1.4-1.4,1.4h-9.2c-.8,0-1.5-.7-1.4-1.5l1.2-33.5h-.4l-11.2,34c-.2.6-.7,1-1.4,1h-8.5c-.6,0-1.2-.4-1.4-1l-11.4-34h-.4l1.2,33.5c0,.8-.6,1.5-1.4,1.5Z"/>
      <path class="st0" d="M427.2,27.3h18c.8,0,1.4.6,1.4,1.4v5.6c0,.8-.6,1.4-1.4,1.4h-18v8.9h19.7c.8,0,1.4.6,1.4,1.4v7.1c0,.8-.6,1.4-1.4,1.4h-30.5c-.8,0-1.4-.6-1.4-1.4V10.5c0-.8.6-1.4,1.4-1.4h30c.8,0,1.4.6,1.4,1.4v7.1c0,.8-.6,1.4-1.4,1.4h-19.3v8.3Z"/>
    </g>
    <g>
      <path class="st0" d="M457.9,10.5c0-.8.6-1.4,1.4-1.4h21.7c12.7,0,18.4,4.7,18.4,17.7v9.6c0,12.5-4,18.4-16.7,18.4h-23.3c-.8,0-1.4-.6-1.4-1.4V10.5ZM470,44.1h10.7c4.5,0,6.1-3,6.1-7.8v-9.6c0-5.9-1.9-7.1-6.1-7.1h-10.7v24.5Z"/>
      <path class="st0" d="M516.1,46.8l-2,6.8c-.2.6-.7,1-1.4,1h-9.6c-1,0-1.7-.9-1.4-1.9l12.8-42.8c.2-.6.7-1,1.4-1h16.4c.6,0,1.2.4,1.4,1l13,42.8c.3.9-.4,1.9-1.4,1.9h-9.4c-.6,0-1.2-.4-1.4-1l-2.1-6.8h-16.4ZM524.3,18.2h-.1l-5.5,19.8h11.3l-5.7-19.8Z"/>
      <path class="st0" d="M573.9,38.7v14.6c0,.8-.6,1.4-1.4,1.4h-9.3c-.8,0-1.4-.6-1.4-1.4v-14.6l-15-27.5c-.5-1,.2-2.1,1.3-2.1h10.6c.6,0,1.1.3,1.3.8l7.8,16.8h.4l8-16.8c.2-.5.7-.8,1.3-.8h10.7c1.1,0,1.8,1.2,1.3,2.1l-15.5,27.5Z"/>
    </g>
  </g>
  <g>
    <g>
      <path class="st0" d="M44.8,16.2h-2.4v3c0,1.2-1,2.2-2.2,2.2s-2.2-1-2.2-2.2v-3h-17.2v3c0,1.2-1,2.2-2.2,2.2s-2.2-1-2.2-2.2v-3h-2.4c-1.3,0-2.4,1.1-2.4,2.4v30.8c0,1.3,1.1,2.4,2.4,2.4h30.8c1.3,0,2.4-1.1,2.4-2.4v-30.8c0-1.3-1.1-2.4-2.4-2.4ZM45.3,49.3c0,.3-.2.5-.5.5H14.1c-.3,0-.5-.2-.5-.5v-23h31.7v23Z"/>
      <rect class="st0" x="17.2" y="11.8" width="2.8" height="8.8" rx="1.4" ry="1.4"/>
      <rect class="st0" x="38.8" y="11.8" width="2.8" height="8.8" rx="1.4" ry="1.4"/>
      <path class="st0" d="M27.5,44.2c.5.5,1.2.5,1.7,0l8.9-8.8c.5-.5.5-1.2,0-1.7l-1.8-1.8c-.5-.5-1.2-.5-1.7,0l-6.2,6.2-4.2-4.2c-.5-.5-1.2-.5-1.7,0l-1.8,1.8c-.5.5-.5,1.2,0,1.7l6.8,6.8Z"/>
    </g>
    <path class="st0" d="M29.4,2.1c12.8,0,20.4,2.6,24.1,8,3.3,5,3.3,12.3,3.3,20.7v1s0,.9,0,.9c0,8.5,0,15.8-3.3,20.9-3.6,5.5-11.3,8.1-24.1,8.1s-20.4-2.6-24.1-8.1c-3.3-5.1-3.3-12.4-3.3-20.9v-.9s0-1,0-1c0-8.4,0-15.7,3.3-20.7C9,4.6,16.6,2.1,29.4,2.1M29.4,0C-.6,0,0,14.2,0,31.9s-.5,31.8,29.4,31.8,29.4-14.1,29.4-31.8S59.4,0,29.4,0h0Z"/>
  </g>
</svg>