<?xml version="1.0" encoding="UTF-8"?>
<svg id="Layer_1" xmlns="http://www.w3.org/2000/svg" version="1.1" viewBox="0 0 50 50">
  <!-- Generator: Adobe Illustrator 30.2.1, SVG Export Plug-In . SVG Version: 2.1.1 Build 1)  -->
  <defs>
    <style>
      .st0 {
        fill: #38a70c;
      }
    </style>
  </defs>
  <path class="st0" d="M43.6,19.1c0-3.8-1.3-7.5-3.7-10.4-3.1-3.8-7.8-6-12.7-6s-9.6,2.2-12.7,6c-2.4,2.9-3.7,6.6-3.7,10.4,0,9.1,7.4,16.4,16.4,16.4s16.4-7.4,16.4-16.4ZM41.9,19.1c0,.8,0,1.5-.2,2.2-2.4,1.7-4.9,2.9-7.4,3.6.2-.7.3-1.4.4-2.2.3-3.4-.3-6.6-1.4-9.5,1.9-.5,3.9-1.3,5.9-2.6,1.7,2.5,2.6,5.4,2.6,8.4ZM33.9,22.7c0,.9-.2,1.7-.5,2.5-4.1,1-8.2.7-12.4-.8-.1,0-.2,0-.3-.1-.1-.5-.2-1.1-.2-1.6-.3-3.4.4-6.8,1.6-9.7,1.8.5,3.9.9,6.2.9s2.7-.1,4.2-.4c1,2.8,1.7,6,1.4,9.2ZM38.6,9.8c0,0,.1.2.2.2-2,1.2-3.9,2-5.7,2.5-1.4-3.6-3.4-6.5-4.6-8,3.9.3,7.6,2.2,10.1,5.3ZM27.2,4.4s0,0,.1,0c1,1.2,3.2,4.3,4.8,8.3-3.7.7-7,.3-9.8-.5,1.6-3.7,3.7-6.6,4.6-7.8,0,0,0,0,.1,0ZM25.9,4.5c-1.1,1.5-2.9,4.1-4.4,7.5-2.5-.8-4.5-1.9-5.4-2.6,2.5-2.9,6-4.6,9.8-5ZM12.4,19.1c0-3.3,1.1-6.5,3.1-9.1,1,.6,3,1.8,5.7,2.7-1.2,3-2,6.4-1.6,10,0,.4,0,.8.2,1.1-3.6-1.5-6.3-3.6-7.3-4.6,0,0,0-.1,0-.2ZM12.5,20.5c1.4,1.2,4,3,7.5,4.4.8,3.3,2.6,6.3,5.4,8.9-6.8-.8-12.2-6.4-12.9-13.3ZM27.2,33.9c-.1,0-.3,0-.4,0-3-2.5-5-5.4-5.8-8.6,2.1.7,4.7,1.3,7.6,1.3s3-.2,4.6-.5c-1,2.9-2.9,5.5-5.6,7.8-.1,0-.3,0-.4,0ZM29,33.8c2.5-2.3,4.3-5,5.1-7.9,2.4-.6,4.8-1.7,7.4-3.3-1.4,5.9-6.4,10.5-12.5,11.2Z"/>
  <path class="st0" d="M24,41.6h-4.9c-1.9,0-3.5,1.6-3.5,3.5s1.6,3.5,3.5,3.5h16.1c1.9,0,3.5-1.6,3.5-3.5s-1.6-3.5-3.5-3.5h-4.9v-.8c0-.5-.1-.9-.3-1.3,1.9-.3,3.8-.7,5.8-1.4.6-.2.8-.8.7-1.3-.2-.6-.8-.8-1.3-.7-3.5,1.2-6.9,1.7-9.9,1.5-9.1-.7-16.8-9.4-16.8-19,0-1.6.2-3.1.5-4.4.6-2.3,1.6-4.5,3.1-6.3,1.6-2,3.6-3.5,5.6-4.4.5-.2.8-.9.5-1.4-.2-.5-.9-.8-1.4-.5-2.3,1-4.5,2.8-6.4,5-1.7,2.1-2.9,4.5-3.5,7.1-.4,1.6-.6,3.2-.6,5,0,10.3,8.1,19.7,17.9,21-.2.4-.2.8-.2,1.2v.8ZM24.9,43.3c.5,0,.8-.4.8-.8v-1.7c0-.4.2-.8.5-1.1.2,0,.4,0,.6,0,.4,0,.9,0,1.3,0,.3.3.5.7.5,1.1v1.7c0,.5.4.8.8.8h5.7c1,0,1.8.8,1.8,1.8s-.8,1.8-1.8,1.8h-16.1c-1,0-1.8-.8-1.8-1.8s.8-1.8,1.8-1.8h5.7Z"/>
</svg>