<?xml version="1.0" encoding="UTF-8"?><svg id="Layer_1" xmlns="http://www.w3.org/2000/svg" viewBox="0 0 50 50"><path d="m24.97,16.45c-4.74,0-8.59,3.85-8.59,8.59s3.85,8.59,8.59,8.59,8.59-3.85,8.59-8.59-3.85-8.59-8.59-8.59Zm0,15.27c-3.69,0-6.68-3-6.68-6.68s3-6.68,6.68-6.68,6.68,3,6.68,6.68-3,6.68-6.68,6.68Z" style="fill:#38a70c;"/><path d="m45.84,29.13l-3.22-1.85v-4.21s3.22-1.85,3.22-1.85c.36-.21.55-.63.46-1.04-.56-2.46-1.48-4.71-2.73-6.71-.22-.35-.65-.52-1.05-.42l-3.6.95-2.97-2.98.94-3.57c.11-.41-.06-.84-.42-1.06-2.11-1.3-4.36-2.22-6.69-2.73-.4-.09-.82.1-1.03.46l-1.38,2.35h-4.22l-1.44-2.44c-.21-.35-.61-.53-1.01-.45-2.66.53-5.17,1.55-7.47,3.02-.35.22-.51.64-.41,1.04l.7,2.66-2.98,2.98-2.72-.71c-.39-.1-.81.06-1.04.39-1.42,2.13-2.44,4.56-3.05,7.22-.09.41.19.83.55,1.04l2.58,1.42v4.2l-2.7,1.49c-.36.2-.59.61-.51,1.01.51,2.54,1.44,4.96,2.81,7.19.22.36.64.53,1.05.42l2.81-.76,2.96,2.97-.82,3.01c-.11.39.05.81.39,1.04,2.25,1.51,4.62,2.57,7.04,3.15.41.1.83-.08,1.04-.44l1.61-2.73h4.21s1.7,2.88,1.7,2.88c.17.29.49.47.82.47.06,0,.13,0,.19-.02,2.64-.55,4.99-1.44,7-2.66.36-.22.53-.64.43-1.04l-.82-3.32,2.99-2.99,3.43.85c.4.1.81-.07,1.03-.41,1.21-1.89,2.11-4.11,2.74-6.79.1-.41-.09-.84-.45-1.05Zm-3.54,6.23l-3.28-.81c-.32-.08-.67.01-.9.25l-3.75,3.75c-.24.24-.33.58-.25.9l.78,3.14c-1.51.83-3.23,1.48-5.13,1.93l-1.62-2.75c-.17-.29-.48-.49-.82-.49l-5.3-.03h0c-.34,0-.65.2-.82.49l-1.52,2.59c-1.76-.5-3.5-1.28-5.17-2.33l.78-2.87c.09-.33,0-.68-.25-.92l-3.74-3.75c-.24-.24-.59-.34-.92-.25l-2.65.72c-.95-1.66-1.65-3.43-2.08-5.28l2.57-1.42c.3-.17.58-.48.58-.83v-5.3c0-.34-.28-.66-.58-.83l-2.39-1.34c.5-1.93,1.23-3.72,2.22-5.34l2.56.68c.33.09.67,0,.91-.25l3.75-3.76c.24-.24.33-.59.25-.91l-.66-2.51c1.75-1.04,3.61-1.79,5.57-2.26l1.36,2.31c.17.29.48.48.82.48h5.3c.34,0,.65-.19.82-.48l1.3-2.21c1.66.43,3.28,1.09,4.83,1.97l-.9,3.4c-.09.33,0,.68.25.92l3.74,3.75c.24.24.59.33.92.25l3.44-.91c.84,1.47,1.5,3.1,1.96,4.84l-3.09,1.77c-.3.17-.48.49-.48.83v5.31c.01.34.19.66.49.82l3.08,1.76c-.5,1.9-1.15,3.52-1.97,4.94Z" style="fill:#38a70c;"/></svg>