<?xml version="1.0" encoding="UTF-8"?>
<svg id="Layer_1" xmlns="http://www.w3.org/2000/svg" version="1.1" viewBox="0 0 50 50">
  <!-- Generator: Adobe Illustrator 30.2.1, SVG Export Plug-In . SVG Version: 2.1.1 Build 1)  -->
  <defs>
    <style>
      .st0 {
        fill: #38a70c;
      }
    </style>
  </defs>
  <path class="st0" d="M7.9,23.8c-.4,0-.8.3-.9.7,0,.4.2.8.7.9,3.1.7,5.9,1,8.5,1,12.1,0,18.4-6.9,22.8-14.3l2.7,1.6c.3.2.6.2.9,0,.3-.2.4-.5.4-.8l-1.7-10.2c0-.3-.2-.5-.4-.6-.2-.1-.5-.1-.7,0l-9.2,3.9c-.3.1-.5.4-.5.8,0,.3.2.6.5.8l2.8,1.3c-7.4,16.2-24.9,15.1-25.7,15ZM35.5,8.7c.2-.4,0-.9-.4-1.1l-1.8-.9,6.5-2.8,1.3,7.4-1.9-1.1c-.2-.1-.4-.1-.6,0-.2,0-.4.2-.5.4-4.5,7.6-10.4,14.4-22.4,14.2,6.5-1.4,15.3-5.3,19.9-16Z"/>
  <path class="st0" d="M10.6,34.5c-1.6,0-2.9,1.6-2.9,3.6v6.3c0,2,1.3,3.6,2.9,3.6h4c1.6,0,2.9-1.6,2.9-3.6v-6.3c0-2-1.3-3.6-2.9-3.6h-4ZM15.8,38.1v6.3c0,1-.6,1.9-1.2,1.9h-4c-.6,0-1.2-.9-1.2-1.9v-6.3c0-1,.6-1.9,1.2-1.9h4c.6,0,1.2.9,1.2,1.9Z"/>
  <path class="st0" d="M22.6,28.6c-1.6,0-2.9,1.6-2.9,3.6v12.2c0,2,1.3,3.6,2.9,3.6h4c1.6,0,2.9-1.6,2.9-3.6v-12.2c0-2-1.3-3.6-2.9-3.6h-4ZM27.7,32.2v12.2c0,1-.6,1.9-1.2,1.9h-4c-.6,0-1.2-.9-1.2-1.9v-12.2c0-1,.6-1.9,1.2-1.9h4c.6,0,1.2.9,1.2,1.9Z"/>
  <path class="st0" d="M39.6,21.5h-4c-1.6,0-2.9,1.6-2.9,3.6v19.3c0,2,1.3,3.6,2.9,3.6h4c1.6,0,2.9-1.6,2.9-3.6v-19.3c0-2-1.3-3.6-2.9-3.6ZM40.9,44.4c0,1-.6,1.9-1.2,1.9h-4c-.6,0-1.2-.9-1.2-1.9v-19.3c0-1,.6-1.9,1.2-1.9h4c.6,0,1.2.9,1.2,1.9v19.3Z"/>
</svg>