<?xml version="1.0" encoding="UTF-8"?><svg id="Layer_1" xmlns="http://www.w3.org/2000/svg" viewBox="0 0 50 50"><path d="m10.07,3.1h29.8l.06.06c1.86.56,2.65,1.64,2.65,3.61v28.73c0,.23-.06.4.28.56.85.4,1.24,1.07,1.24,2.03v1.41c0,.9-.4,1.64-1.24,2.03-.23.11-.28.23-.28.4v2.14c-.06,1.52-1.24,2.82-2.82,2.82h-2.71c-1.47-.06-2.71-1.24-2.77-2.71-.06-.62,0-1.3,0-1.92v-.51H15.66v2.31c-.06,1.58-1.3,2.82-2.88,2.82h-2.48c-1.64,0-2.93-1.24-2.93-2.93v-2.09c0-.11-.06-.28-.17-.34-.68-.34-1.07-.85-1.3-1.58v-2.37c.23-.56.51-1.13,1.07-1.41.34-.17.4-.34.4-.68V6.6c0-1.69.96-2.93,2.6-3.33,0-.11.06-.17.11-.17Zm.85,24.21v-14.84c0-1.75,1.02-2.77,2.71-2.77h22.52c.28,0,.56,0,.85.06,1.24.28,1.92,1.24,1.92,2.6v14.9c.68.11,1.24.17,1.92.28V6.54c0-1.19-.62-1.81-1.81-1.81-9.37.06-18.74.06-28.16.06-1.24,0-1.81.62-1.81,1.81v20.94c.62-.06,1.24-.17,1.86-.23Zm1.75-12.64v6.83c.28,0,.51-.06.73-.06.85-.11,1.69-.23,2.54-.28.56-.06,1.02.28,1.02.79.06.51-.28.85-.9.96-.45.06-.9.11-1.35.17,1.02.62,2.09,1.19,3.16,1.75.11.06.28.06.4.06h13.38c.11,0,.28,0,.4-.06,1.07-.56,2.14-1.13,3.27-1.75-.23-.06-.34-.06-.45-.11-1.02-.11-2.09-.23-3.1-.28-2.65-.11-5.31-.17-7.96-.28-.56,0-.96-.34-.96-.85s.4-.85.96-.85c3.84-.06,7.68.11,11.46.56.68.06,1.35.17,2.03.23v-6.83c-8.24,0-16.37,0-24.61,0Zm12.3,25.23h16.99c.28,0,.45-.17.45-.51v-1.41c0-.28-.17-.45-.45-.45H8.04c-.28.06-.45.17-.45.51v1.35c0,.34.17.51.51.51h16.88Zm6.26-13.38h-12.53c.17,2.03.4,4.01.56,5.98.06.96.51,1.64,1.3,2.03.56.34,1.19.62,1.69.96.56.4,1.19.23,1.81.23v-6.55c0-.62.34-1.02.85-1.02s.85.34.85.96v6.6c.56-.06,1.07.06,1.52-.17.79-.34,1.52-.85,2.31-1.3.62-.4.96-.96,1.02-1.69.06-.45.11-.9.11-1.3.17-1.47.34-3.1.51-4.74Zm-18.57-2.6v3.95c0,.17.06.28.17.45.68,1.3,1.35,2.65,1.98,3.95.28.68.56,1.35.73,2.09.11.45.17.96.28,1.41h3.5c-1.02-.73-1.52-1.69-1.69-2.82-.17-1.81-.4-3.61-.51-5.42-.06-.96-.34-1.58-1.3-1.92-1.07-.51-2.09-1.13-3.16-1.69Zm24.61.06c-.06,0-.11,0-.17.06-1.3.68-2.65,1.41-3.95,2.09-.11.06-.23.23-.23.34-.17,1.86-.4,3.78-.51,5.64-.11,1.41-.45,2.71-1.69,3.61v.06h3.44c.11-1.41.56-2.65,1.19-3.89.56-1.19,1.19-2.37,1.75-3.56.06-.11.17-.28.17-.45,0-1.3,0-2.6,0-3.89Zm-12.3-12.53h-11.68c-.4.06-.62.34-.62.73s.17.68.56.73c.23.06.4.06.62.06h22.46c.68-.06,1.02-.34,1.02-.79,0-.51-.4-.73-1.02-.73h-11.34Zm-15.92,30.19v2.37c0,.62.51,1.07,1.13,1.13h2.6c.56,0,1.07-.4,1.13-.96.06-.85,0-1.69,0-2.54h-4.85Zm26.98,0c0,.85-.06,1.69,0,2.54.06.51.56.9,1.13.96h2.6c.56,0,1.07-.45,1.13-.96.06-.79,0-1.64,0-2.48-1.64-.06-3.22-.06-4.85-.06Zm-26.98-5.87h5.08c-.23-.79-.45-1.52-.68-2.26,0-.11-.17-.17-.28-.17h-3.1c-.51,0-.96.45-.96.96-.11.45-.06.96-.06,1.47Zm31.83,0v-1.47c0-.56-.45-1.02-1.02-1.02h-3.05c-.11,0-.28.06-.28.17-.23.73-.45,1.52-.68,2.31h5.02Zm-3.44-4.23c0,.06.06.11.06.17h3.39v-1.07c0-1.19-1.07-1.92-2.14-1.47-.06,0-.11.06-.17.11-.34.68-.73,1.47-1.13,2.26Zm-25.06.11c0-.06.06-.11.06-.17-.4-.73-.73-1.52-1.13-2.26-.06-.06-.17-.17-.28-.17h-.85c-.62.06-1.13.45-1.19,1.07-.06.56,0,1.07,0,1.52,1.19,0,2.31,0,3.39,0Z" style="fill:#38a70c;"/></svg>