<?xml version="1.0" encoding="utf-8"?>
<!-- Generator: Adobe Illustrator 28.1.0, SVG Export Plug-In . SVG Version: 6.00 Build 0)  -->
<svg version="1.1" id="Layer_1" xmlns="http://www.w3.org/2000/svg" xmlns:xlink="http://www.w3.org/1999/xlink" x="0px" y="0px"
	 viewBox="0 0 305.9 244.3" style="enable-background:new 0 0 305.9 244.3;" xml:space="preserve">
<style type="text/css">
	.st0{fill:#051B4C;}
	.st1{fill:#38A70C;}
	.st2{fill:url(#SVGID_1_);}
	.st3{fill:#62C83A;}
	.st4{fill:#083085;}
	.st5{fill:#FFFFFF;}
	.st6{fill:#CD1707;}
</style>
<g>
	<path id="XMLID_00000064339094824908184920000011371214808719294142_" class="st0" d="M86.3,173.7h15.5c0.7,0,1.3-0.6,1.3-1.3v-7.8
		c0-0.7-0.6-1.3-1.3-1.3H86.3c-6.5,0-8.2-0.8-8.6-7.7H101c0.7,0,1.3-0.6,1.3-1.3v-7.5c0-0.7-0.6-1.3-1.3-1.3H77.8
		c0.4-6.6,2.2-7.3,8.6-7.3h15.5c0.7,0,1.3-0.6,1.3-1.3v-8c0-0.7-0.6-1.3-1.3-1.3H86.3c-21.7-0.3-21.3,10-21.3,22.9
		C65,163.4,64.6,173.7,86.3,173.7z"/>
	<path id="XMLID_00000067228808836584213640000006818117381474354869_" class="st0" d="M128,173.7c17.6,0,20.7-6.8,21.2-16.2
		c0.1-0.8-0.6-1.4-1.3-1.4h-10.1c-0.7,0-1.3,0.5-1.3,1.2c-0.6,5.2-2.6,5.9-8.5,5.9c-7.8,0-8.7-1.2-8.7-12.6
		c0-11.4,0.9-12.6,8.7-12.6c5.7,0,7.7,0.7,8.4,5.6c0.1,0.7,0.7,1.2,1.3,1.2h10.1c0.8,0,1.4-0.7,1.3-1.4c-0.6-9.3-3.8-15.9-21.2-15.9
		c-21.7,0-21.3,10.3-21.3,23.2C106.6,163.4,106.3,173.7,128,173.7z"/>
	<path id="XMLID_00000129203216061555913910000017507814395489629059_" class="st0" d="M183.9,127.4c-1.2,0-2.3,1-2.3,2.3v14.9
		h-16.1v-15c0-1.2-1-2.3-2.3-2.3h-7.9c-1.2,0-2.3,1-2.3,2.3v41.7c0,1.2,1,2.3,2.3,2.3h7.9c1.2,0,2.3-1,2.3-2.3v-15.1h16.1v15.1
		c0,1.2,1,2.3,2.3,2.3h7.9c1.2,0,2.3-1,2.3-2.3v-41.6c0-1.2-1-2.3-2.3-2.3H183.9z"/>
	<path id="XMLID_00000133493563837489284750000001463624301735354532_" class="st0" d="M219.6,173.7c21.7,0,21.3-10.3,21.3-23.2
		s0.4-23.2-21.3-23.2s-21.3,10.3-21.3,23.2S197.9,173.7,219.6,173.7z M219.6,137.8c7.8,0,8.7,1.2,8.7,12.6c0,11.4-0.9,12.6-8.7,12.6
		s-8.7-1.2-8.7-12.6C210.8,139.1,211.8,137.8,219.6,137.8z"/>
</g>
<g>
	<path class="st1" d="M12.4,216.6h18c0.6,0,1,0.4,1,1v8.2c0,0.6-0.4,1-1,1h-18v16c0,0.6-0.4,1-1,1H1c-0.6,0-1-0.4-1-1v-44.5
		c0-0.6,0.4-1,1-1h31c0.6,0,1,0.4,1,1v8.2c0,0.6-0.4,1-1,1H12.4V216.6z"/>
	<path class="st1" d="M49.2,235.8l-2.1,7.3c-0.1,0.4-0.5,0.7-1,0.7H35.4c-0.7,0-1.2-0.6-1-1.3L47.7,198c0.1-0.4,0.5-0.7,1-0.7h17.4
		c0.4,0,0.8,0.3,1,0.7l13.5,44.5c0.2,0.6-0.3,1.3-1,1.3H69.1c-0.4,0-0.8-0.3-1-0.7l-2.2-7.3H49.2z M57.7,206.6L57.7,206.6L52,226.7
		h11.5L57.7,206.6z"/>
	<path class="st1" d="M95.4,243.8H85c-0.6,0-1-0.4-1-1v-44.5c0-0.6,0.4-1,1-1h17.9c0.4,0,0.8,0.3,1,0.7l8.7,28.5h0.4l8.2-28.5
		c0.1-0.4,0.5-0.7,1-0.7h18.4c0.6,0,1,0.4,1,1v44.5c0,0.6-0.4,1-1,1h-10.4c-0.6,0-1-0.5-1-1l1.2-34.6H130l-11.6,35
		c-0.1,0.4-0.5,0.7-0.9,0.7h-9.3c-0.4,0-0.8-0.3-0.9-0.7l-11.7-35h-0.4l1.2,34.6C96.4,243.4,95.9,243.8,95.4,243.8z"/>
	<path class="st1" d="M160.5,243.8h-10.4c-0.6,0-1-0.4-1-1v-44.5c0-0.6,0.4-1,1-1h10.4c0.6,0,1,0.4,1,1v44.5
		C161.5,243.4,161.1,243.8,160.5,243.8z"/>
	<path class="st1" d="M181.3,233h18.4c0.6,0,1,0.4,1,1v8.8c0,0.6-0.4,1-1,1h-29.8c-0.6,0-1-0.4-1-1v-44.5c0-0.6,0.4-1,1-1h10.4
		c0.6,0,1,0.4,1,1L181.3,233L181.3,233z"/>
	<path class="st1" d="M216.9,243.8h-10.4c-0.6,0-1-0.4-1-1v-44.5c0-0.6,0.4-1,1-1h10.4c0.6,0,1,0.4,1,1v44.5
		C217.9,243.4,217.4,243.8,216.9,243.8z"/>
	<path class="st1" d="M238.1,216h18.8c0.6,0,1,0.4,1,1v6.6c0,0.6-0.4,1-1,1h-18.8v9.1h20.6c0.6,0,1,0.4,1,1v8.2c0,0.6-0.4,1-1,1h-32
		c-0.6,0-1-0.4-1-1v-44.5c0-0.6,0.4-1,1-1h31.5c0.6,0,1,0.4,1,1v8.2c0,0.6-0.4,1-1,1h-20.1L238.1,216L238.1,216z"/>
	<path class="st1" d="M288.7,215.6c13.8,1,17.2,2.7,17.2,13.4c0,7.7,0.3,15.3-20.1,15.3c-11.6,0-19.4-0.2-19.7-14.5c0-0.6,0.4-1,1-1
		h9.9c0.5,0,1,0.4,1,0.9c0.2,4,2.1,4.4,7.8,4.4c5.8,0,7.7-0.4,7.7-4.3c0-4-0.7-4-6.5-4.3l-2.7-0.2c-11.5-0.8-18.2-0.7-18.2-14.1
		s7.5-14.2,19.7-14.2c10.2,0,18.8,0.2,18.8,13v0.9c0,0.6-0.4,1-1,1h-9.9c-0.5,0-1-0.4-1-0.9c-0.3-3.8-2.3-3.8-6.9-3.8
		c-6.7,0-7.3,1.4-7.3,4c0,3.7,1.8,3.8,5.1,4.1L288.7,215.6z"/>
</g>
<g>
	<linearGradient id="SVGID_1_" gradientUnits="userSpaceOnUse" x1="152.6916" y1="93.9391" x2="153.4065" y2="-0.141">
		<stop  offset="0.4133" style="stop-color:#FFFFFF"/>
		<stop  offset="1" style="stop-color:#A8D2FF"/>
	</linearGradient>
	<path class="st2" d="M153,101.8c47.8,0,47-22.6,47-50.9S201,0,153,0s-47,22.6-47,50.9S105.2,101.8,153,101.8z"/>
	<path class="st3" d="M106,61.9c0.6,22.9,5.6,39.8,47,39.8s46.4-17,47-39.8L106,61.9z"/>
	<g>
		<g>
			<polygon class="st4" points="180.4,85.4 180.4,43.7 153.5,16.3 124.9,43.7 124.9,85.4 			"/>
			<path class="st0" d="M114.3,46.9c0,0,2.4,4.5,7.7,0l31.7-30.1l29.6,29.9c6.1,4.5,8.5,0,8.5,0L153.7,8.8L114.3,46.9z"/>
			<path class="st4" d="M177,20.6h-7.7v6.1l7.5,7.4L177,20.6L177,20.6z"/>
			<path class="st5" d="M174.6,52.7L174.6,52.7c0-0.1,0-0.3,0-0.4c0-6-5-11.1-11.2-11.1c-4.5,0-8.4,2.9-10.2,6.6h0
				c-1.8-3.7-5.7-6.6-10.2-6.6c-6.2,0-11.2,5.2-11.2,11.1c0,0.1,0,0.3,0,0.4h0c0,0-0.6,7.1,7.3,14.8c3.6,3.6,7.6,7,14.2,12.4
				c6.6-5.4,10.6-8.8,14.2-12.4C175.3,59.7,174.6,52.7,174.6,52.7z"/>
			<path class="st6" d="M172.4,53.5L172.4,53.5c0-0.1,0-0.3,0-0.4c0-5.3-4.5-10-10.1-10c-4.1,0-7.6,2.6-9.1,5.9h0
				c-1.6-3.3-5.1-5.9-9.1-5.9c-5.6,0-10.1,4.6-10.1,10c0,0.1,0,0.3,0,0.4h0c0,0-0.6,6.3,6.5,13.3c3.2,3.2,6.8,6.3,12.7,11.1
				c5.9-4.8,9.5-7.9,12.7-11.1C172.9,59.8,172.4,53.5,172.4,53.5z"/>
		</g>
	</g>
</g>
</svg>
