<?xml version="1.0" encoding="utf-8"?>
<!-- Generator: Adobe Illustrator 27.9.0, SVG Export Plug-In . SVG Version: 6.00 Build 0)  -->
<svg version="1.1" id="Layer_1" xmlns="http://www.w3.org/2000/svg" xmlns:xlink="http://www.w3.org/1999/xlink" x="0px" y="0px"
	 viewBox="0 0 581.9 63.6" style="enable-background:new 0 0 581.9 63.6;" xml:space="preserve">
<style type="text/css">
	.st0{fill:#051B4C;}
	.st1{fill:#38A70C;}
	.st2{fill:#62C83A;}
	.st3{fill:#FFFFFF;}
</style>
<g>
	<g>
		<path id="XMLID_00000111875780722865410360000003100259519981088425_" class="st0" d="M96.8,55h15.5c0.7,0,1.3-0.6,1.3-1.3v-7.8
			c0-0.7-0.6-1.3-1.3-1.3H96.8c-6.5,0-8.2-0.8-8.6-7.7h23.2c0.7,0,1.3-0.6,1.3-1.3v-7.5c0-0.7-0.6-1.3-1.3-1.3H88.2
			c0.4-6.6,2.2-7.3,8.6-7.3h15.5c0.7,0,1.3-0.6,1.3-1.3v-8c0-0.7-0.6-1.3-1.3-1.3H96.8c-21.7,0-21.3,10.3-21.3,23.2
			C75.5,44.7,75.1,55,96.8,55z"/>
		<path id="XMLID_00000039839395026252574540000009509397937065167494_" class="st0" d="M138.4,55c17.6,0,20.7-6.8,21.2-16.2
			c0.1-0.8-0.6-1.4-1.3-1.4h-10.1c-0.7,0-1.3,0.5-1.3,1.2c-0.6,5.2-2.6,5.9-8.5,5.9c-7.8,0-8.7-1.2-8.7-12.6
			c0-11.4,0.9-12.6,8.7-12.6c5.7,0,7.7,0.7,8.4,5.6c0.1,0.7,0.7,1.2,1.3,1.2h10.1c0.8,0,1.4-0.7,1.3-1.4
			c-0.6-9.3-3.8-15.9-21.2-15.9c-21.7,0-21.3,10.3-21.3,23.2C117.1,44.7,116.7,55,138.4,55z"/>
		<path id="XMLID_00000136377825399172042310000007309292629021934213_" class="st0" d="M194.4,8.7c-1.2,0-2.3,1-2.3,2.3v14.9H176
			v-15c0-1.2-1-2.3-2.3-2.3h-7.9c-1.2,0-2.3,1-2.3,2.3v41.7c0,1.2,1,2.3,2.3,2.3h7.9c1.2,0,2.3-1,2.3-2.3V37.6h16.1v15.1
			c0,1.2,1,2.3,2.3,2.3h7.9c1.2,0,2.3-1,2.3-2.3V11c0-1.2-1-2.3-2.3-2.3L194.4,8.7z"/>
		<path id="XMLID_00000144332159296229914800000000264601320502959745_" class="st0" d="M230,55c21.7,0,21.3-10.3,21.3-23.2
			S251.7,8.6,230,8.6s-21.3,10.3-21.3,23.2C208.7,44.7,208.3,55,230,55z M230,19.2c7.8,0,8.7,1.2,8.7,12.6s-0.9,12.6-8.7,12.6
			c-7.8,0-8.7-1.2-8.7-12.6C221.3,20.4,222.2,19.2,230,19.2z"/>
	</g>
	<g>
		<path class="st1" d="M306.6,38.3v-13c0-14.2,8.8-16.9,21.3-16.9s21.3,2.7,21.3,16.9v13c0,14.2-8.8,16.9-21.3,16.9
			C315.5,55.2,306.6,52.5,306.6,38.3z M336.6,37V26.6c0-6.8-2.3-7.5-8.7-7.5c-6.4,0-8.5,0.7-8.7,7.5V37c0.2,6.9,2.3,7.6,8.7,7.6
			C334.3,44.5,336.6,43.9,336.6,37z"/>
		<path class="st1" d="M365.8,54.9h-9.4c-0.8,0-1.4-0.6-1.4-1.4V10.2c0-0.8,0.6-1.4,1.4-1.4h18.3c0.6,0,1.1,0.4,1.3,0.9l12.9,34.4
			h0.5l-0.7-33.9c0-0.8,0.6-1.4,1.4-1.4h9.4c0.8,0,1.4,0.6,1.4,1.4v43.2c0,0.8-0.6,1.4-1.4,1.4H381c-0.6,0-1.1-0.4-1.3-0.9
			l-12.7-34.4h-0.5l0.7,33.9C367.2,54.2,366.6,54.9,365.8,54.9z"/>
		<path class="st1" d="M419.2,54.9h-9.4c-0.8,0-1.4-0.6-1.4-1.4V10.2c0-0.8,0.6-1.4,1.4-1.4h18.3c0.6,0,1.1,0.4,1.3,0.9l12.9,34.4
			h0.5l-0.7-33.9c0-0.8,0.6-1.4,1.4-1.4h9.4c0.8,0,1.4,0.6,1.4,1.4v43.2c0,0.8-0.6,1.4-1.4,1.4h-18.5c-0.6,0-1.1-0.4-1.3-0.9
			l-12.7-34.4H420l0.7,33.9C420.7,54.2,420,54.9,419.2,54.9z"/>
		<path class="st1" d="M475.8,27.3h16.8c0.8,0,1.4,0.6,1.4,1.4v5.7c0,0.8-0.6,1.4-1.4,1.4h-16.8c-0.8,0-1.4,0.6-1.4,1.4v6.1
			c0,0.8,0.6,1.4,1.4,1.4h18.5c0.8,0,1.4,0.6,1.4,1.4v7.2c0,0.8-0.6,1.4-1.4,1.4h-30.8c-0.8,0-1.4-0.6-1.4-1.4V10.3
			c0-0.8,0.6-1.4,1.4-1.4h30.4c0.8,0,1.4,0.6,1.4,1.4v7.1c0,0.8-0.6,1.4-1.4,1.4h-18.1c-0.8,0-1.4,0.6-1.4,1.4v5.6
			C474.3,26.7,475,27.3,475.8,27.3z"/>
		<path class="st1" d="M568.1,54.9h-9.5c-0.8,0-1.4-0.6-1.4-1.4V20.9c0-0.8-0.6-1.4-1.4-1.4h-8.9c-0.8,0-1.4-0.6-1.4-1.4v-7.8
			c0-0.8,0.6-1.4,1.4-1.4h33.6c0.8,0,1.4,0.6,1.4,1.4v7.8c0,0.8-0.6,1.4-1.4,1.4h-9.6c-0.8,0-1.4,0.6-1.4,1.4v32.5
			C569.5,54.2,568.9,54.9,568.1,54.9z"/>
		<path id="XMLID_00000079482381384500237610000006146402300130992301_" class="st1" d="M281.4,55c17.6,0,20.7-6.8,21.2-16.2
			c0.1-0.8-0.6-1.4-1.3-1.4h-10.1c-0.7,0-1.3,0.5-1.3,1.2c-0.6,5.2-2.6,5.9-8.5,5.9c-7.8,0-8.7-1.2-8.7-12.6
			c0-11.4,0.9-12.6,8.7-12.6c5.7,0,7.7,0.7,8.4,5.6c0.1,0.7,0.7,1.2,1.3,1.2h10.1c0.8,0,1.4-0.7,1.3-1.4
			c-0.6-9.3-3.8-15.9-21.2-15.9c-21.7,0-21.3,10.3-21.3,23.2C260.1,44.7,259.7,55,281.4,55z"/>
		<path id="XMLID_00000012467364473099333220000013352186851377621180_" class="st1" d="M521.2,55c17.6,0,20.7-6.8,21.2-16.2
			c0.1-0.8-0.6-1.4-1.3-1.4H531c-0.7,0-1.3,0.5-1.3,1.2c-0.6,5.2-2.6,5.9-8.5,5.9c-7.8,0-8.7-1.2-8.7-12.6c0-11.4,0.9-12.6,8.7-12.6
			c5.7,0,7.7,0.7,8.4,5.6c0.1,0.7,0.7,1.2,1.3,1.2H541c0.8,0,1.4-0.7,1.3-1.4c-0.6-9.3-3.8-15.9-21.2-15.9
			c-21.7,0-21.3,10.3-21.3,23.2C499.8,44.7,499.5,55,521.2,55z"/>
	</g>
	<g>
		<path class="st1" d="M29.4,63.6c29.9,0,29.4-14.1,29.4-31.8S59.4,0,29.4,0S0,14.1,0,31.8C0,49.5-0.5,63.6,29.4,63.6z"/>
		<g>
			<circle class="st2" cx="40.7" cy="12.8" r="7.3"/>
			<circle class="st2" cx="29.7" cy="31.6" r="15.1"/>
			<circle class="st2" cx="49.4" cy="33.5" r="7.3"/>
			<circle class="st2" cx="34.1" cy="50.8" r="7.3"/>
			<circle class="st2" cx="9.5" cy="38.2" r="7.3"/>
			<circle class="st2" cx="16.4" cy="18.8" r="7.3"/>
			<path class="st0" d="M23.3,23.9l-2.9-2.8c0.3-0.6,0.6-1.3,0.6-2.1c0-2.4-1.9-4.4-4.4-4.4s-4.4,1.9-4.4,4.4s1.9,4.4,4.4,4.4
				c0.9,0,1.6-0.3,2.3-0.7l2.9,2.8C22.2,24.9,22.7,24.4,23.3,23.9L23.3,23.9z"/>
			<path class="st0" d="M35.7,23.6l3.9-6.6c0.4,0.1,0.8,0.2,1.2,0.2c2.4,0,4.4-1.9,4.4-4.4s-1.9-4.4-4.4-4.4s-4.4,1.9-4.4,4.4
				c0,1.2,0.5,2.3,1.3,3.1l-3.9,6.6C34.5,22.8,35.2,23.2,35.7,23.6L35.7,23.6z"/>
			<path class="st0" d="M49.3,29.1c-1.9,0-3.5,1.2-4.1,2.9l-5.5-0.6c0,0.1,0,0.1,0,0.1c0,0.7-0.1,1.4-0.2,2.1l5.5,0.6
				c0.3,2.1,2.1,3.7,4.3,3.7c2.4,0,4.4-1.9,4.4-4.4C53.7,31.1,51.7,29.1,49.3,29.1L49.3,29.1z"/>
			<path class="st0" d="M34.2,46.4L33,41c-0.7,0.3-1.4,0.4-2.1,0.5l1.3,5.3c-1.4,0.8-2.4,2.2-2.4,3.9c0,2.4,1.9,4.4,4.4,4.4
				s4.4-1.9,4.4-4.4C38.5,48.4,36.6,46.4,34.2,46.4L34.2,46.4z"/>
			<path class="st0" d="M19.9,33.7l-6.8,2.3c-0.8-1.2-2.1-2-3.7-2c-2.4,0-4.4,1.9-4.4,4.4c0,2.4,1.9,4.4,4.4,4.4s4.4-1.9,4.4-4.4
				c0-0.1,0-0.2,0-0.3l6.8-2.3C20.3,35.1,20.1,34.4,19.9,33.7L19.9,33.7z"/>
			<path class="st0" d="M37.2,31.6c0,4.1-3.4,7.5-7.5,7.5s-7.5-3.4-7.5-7.5s3.4-7.5,7.5-7.5C33.9,24,37.2,27.4,37.2,31.6L37.2,31.6z
				"/>
			<circle class="st3" cx="29.7" cy="31.6" r="2.7"/>
			<g>
				<circle class="st3" cx="49.4" cy="33.5" r="1.7"/>
				<circle class="st3" cx="34.1" cy="50.8" r="1.7"/>
				<circle class="st3" cx="40.7" cy="12.8" r="1.7"/>
				<circle class="st3" cx="16.4" cy="18.8" r="1.7"/>
				<circle class="st3" cx="9.5" cy="38.2" r="1.7"/>
			</g>
		</g>
	</g>
</g>
</svg>
