<?xml version="1.0" encoding="utf-8"?>
<!-- Generator: Adobe Illustrator 27.9.0, SVG Export Plug-In . SVG Version: 6.00 Build 0)  -->
<svg version="1.1" id="Layer_1" xmlns="http://www.w3.org/2000/svg" xmlns:xlink="http://www.w3.org/1999/xlink" x="0px" y="0px"
	 viewBox="0 0 58.8 63.6" style="enable-background:new 0 0 58.8 63.6;" xml:space="preserve">
<style type="text/css">
	.st0{fill:#38A70C;}
	.st1{display:none;clip-path:url(#SVGID_00000023255205677364552720000017126664276968157843_);}
	.st2{display:inline;fill:#FFFFFF;}
	.st3{display:inline;}
	.st4{fill:#051B4C;}
	.st5{opacity:0.48;}
	.st6{fill:#404041;}
	.st7{fill:#CB915E;}
	.st8{fill:#E0AC59;}
	.st9{fill:#E6E7EB;}
	.st10{fill:none;}
	.st11{fill:#EFF0F0;}
	.st12{fill:#0A3EAC;}
	.st13{fill:#003078;}
	.st14{fill:#0030A4;}
	.st15{fill:#FFFFFF;}
	.st16{fill:#E0AC69;}
</style>
<g>
	<path class="st0" d="M29.4,63.6c29.9,0,29.4-14.1,29.4-31.8S59.4,0,29.4,0S0,14.1,0,31.8S-0.5,63.6,29.4,63.6z"/>
	<g>
		<g>
			<defs>
				<ellipse id="SVGID_1_" cx="29.4" cy="31.8" rx="29.4" ry="31.8"/>
			</defs>
			<clipPath id="SVGID_00000015316133703339282710000012667855623671192474_">
				<use xlink:href="#SVGID_1_"  style="overflow:visible;"/>
			</clipPath>
			<g style="display:none;clip-path:url(#SVGID_00000015316133703339282710000012667855623671192474_);">
				<ellipse class="st2" cx="29.4" cy="57.8" rx="42.5" ry="41.7"/>
				<g class="st3">
					<g>
						<path class="st4" d="M28.2,76.7c-0.9,7.8-0.5,15.9,1.4,23c20.6,0,38.7-15.2,41.7-36c1.4-11.6-1.7-23-8.8-31.8
							C44.6,39.5,31.1,55.9,28.2,76.7"/>
						<path class="st4" d="M10.7,95.2c-0.7-7.6,0-15.2,2.6-23C20.6,49.5,40.1,34,62.1,30.7c-0.2-0.2-0.2-0.2-0.5-0.5
							c-24.4-3.8-49.8,6.4-64,28c-3.3,5-5.5,10.2-7.4,15.4C-5.7,83.1,1.4,90.7,10.7,95.2"/>
						<path class="st4" d="M60,28.8c-6.4-6.9-15.2-11.4-24.9-12.6c-20.2-2.8-38.9,9-45.8,27.3C9,27.2,35.8,21.5,60,28.8"/>
					</g>
				</g>
			</g>
		</g>
	</g>
	<g>
		<g id="XMLID_00000054973752806922991530000013784483355128592514_" class="st5">
			<path id="XMLID_00000050629502549379602350000010681215562389047178_" class="st6" d="M27.5,45.2H16.8c0,0-0.1,0-0.1-0.1v-0.6
				c0,0,0-0.1,0.1-0.1h10.7c0,0,0.1,0,0.1,0.1L27.5,45.2C27.6,45.1,27.5,45.2,27.5,45.2z"/>
		</g>
		<g>
			<g>
				<g>
					<path class="st7" d="M25.9,46.1c0.9-0.1,1.8-0.3,2.7-0.6l14.7-4.9c0.3-0.1,0.4-0.4,0.3-0.7l-0.2-0.6c-0.5-1.3-1.9-2-3.3-1.7
						l-9.5,2.3c-0.9,0.2-3.4,0.5-5-0.6l-1.6,2L25.9,46.1z"/>
				</g>
			</g>
		</g>
		<g>
			<g>
				<g>
					<path class="st8" d="M30,47c0.9-0.1,1.8-0.3,2.7-0.6l14.7-4.9c0.3-0.1,0.4-0.4,0.3-0.7l-0.2-0.6c-0.5-1.3-1.9-2-3.3-1.7
						l-9.5,2.3c-0.9,0.2-3.4,0.5-5-0.6L28,42.3L30,47z"/>
				</g>
			</g>
		</g>
		<g id="XMLID_00000105398983093182282730000005604179323853185453_">
			<g id="XMLID_00000127758115217355869410000008589691867860629397_">
				<g>
					
						<rect id="XMLID_00000158001628559298075920000012826054677833160895_" x="16.8" y="23.3" class="st9" width="26.4" height="16.2"/>
				</g>
			</g>
			<g id="XMLID_00000025401152683283117430000017707942546815568802_">
				<g id="XMLID_00000057839815361351039720000014509192218680216966_">
					<path id="XMLID_00000086671446960470891050000000655822646941461131_" class="st10" d="M43.1,39.2c-0.9,0-1.8,0-2.6,0
						c-2.1,0-4.2,0-6.3,0c-2.5,0-5.1,0-7.6,0c-2.2,0-4.4,0-6.6,0c-0.7,0-1.4,0-2.2,0c-0.3,0-0.7-0.1-1,0l0,0
						c0.1,0.1,0.2,0.2,0.3,0.3c0-1.8,0-3.6,0-5.5c0-2.9,0-5.8,0-8.7c0-0.7,0-1.3,0-2c-0.1,0.1-0.2,0.2-0.3,0.3c0.9,0,1.8,0,2.6,0
						c2.1,0,4.2,0,6.3,0c2.5,0,5.1,0,7.6,0c2.2,0,4.4,0,6.6,0c0.7,0,1.4,0,2.2,0c0.3,0,0.7,0.1,1,0l0,0c-0.1-0.1-0.2-0.2-0.3-0.3
						c0,1.8,0,3.6,0,5.5c0,2.9,0,5.8,0,8.7c0,0.7,0,1.3,0,2c0,0.4,0.6,0.4,0.6,0c0-1.8,0-3.6,0-5.5c0-2.9,0-5.8,0-8.7
						c0-0.7,0-1.3,0-2c0-0.2-0.1-0.3-0.3-0.3c-0.9,0-1.8,0-2.6,0c-2.1,0-4.2,0-6.3,0c-2.5,0-5.1,0-7.6,0c-2.2,0-4.4,0-6.6,0
						c-1.1,0-2.1,0-3.2,0l0,0c-0.2,0-0.3,0.1-0.3,0.3c0,1.8,0,3.6,0,5.5c0,2.9,0,5.8,0,8.7c0,0.7,0,1.3,0,2c0,0.2,0.1,0.3,0.3,0.3
						c0.9,0,1.8,0,2.6,0c2.1,0,4.2,0,6.3,0c2.5,0,5.1,0,7.6,0c2.2,0,4.4,0,6.6,0c1.1,0,2.1,0,3.2,0l0,0
						C43.6,39.8,43.6,39.2,43.1,39.2z"/>
				</g>
			</g>
		</g>
		<path class="st11" d="M45.3,41.1v-0.9c-0.1-0.1-0.2-0.2-0.3-0.3l-0.1-0.1c-0.1-0.1-0.2-0.2-0.2-0.3v-0.1c0,0,0,0,0.1,0l0,0l0,0
			c0,0-0.1,0-0.1-0.1l0,0H15v1.8L45.3,41.1L45.3,41.1z"/>
		<path class="st11" d="M45.5,40.9V40c-0.1-0.1-0.2-0.2-0.3-0.3l-0.1-0.1c-0.1-0.1-0.2-0.2-0.2-0.3v-0.1c0,0,0,0,0.1,0l0,0l0,0
			c0,0-0.1,0-0.1-0.1l0,0H15.1V41L45.5,40.9C45.5,41,45.5,40.9,45.5,40.9z"/>
		<g id="XMLID_00000108293459630714587170000010079975080301623480_">
			<g id="XMLID_00000168078915821725688440000014405895695889411971_">
				<path class="st11" d="M44.8,39.8v0.9c0,0,0,0,0-0.1c0.1-0.1,0.1-0.1,0.2-0.2v-0.1c0.1,0,0.1-0.1,0.2-0.1c0.1,0,0.1-0.1,0.2-0.1
					l0,0v-0.7c0-0.2-0.1-0.3-0.3-0.3H18.5c-1.2,0-2.5,0-3.7,0c0,0,0,0-0.1,0c-0.2,0-0.3,0.1-0.3,0.3v1.8c0,0.4,0.6,0.4,0.6,0v-1.4
					h28.8C44.2,39.8,44.5,39.9,44.8,39.8z"/>
			</g>
		</g>
		<g id="XMLID_00000117659252304121705590000007045579095545643666_">
			<g id="XMLID_00000003783366722077020590000006195295020327189386_">
				
					<rect id="XMLID_00000052080065080869754650000010497229875888146597_" x="34.7" y="28.8" class="st4" width="6.1" height="10.7"/>
			</g>
			<g id="XMLID_00000114788108819305338720000009037284552720697483_">
				<g id="XMLID_00000074422431371450756390000004633064457218046126_">
					<path id="XMLID_00000022537887128078477260000017070707481169632399_" class="st11" d="M40.7,39.2c-1.8,0-3.5,0-5.3,0
						c-0.3,0-0.5,0-0.8,0c0.1,0.1,0.2,0.2,0.3,0.3c0-3.1,0-6.2,0-9.4c0-0.4,0-0.9,0-1.3c-0.1,0.1-0.2,0.2-0.3,0.3c1.8,0,3.5,0,5.3,0
						c0.3,0,0.5,0,0.8,0c-0.1-0.1-0.2-0.2-0.3-0.3c0,3.1,0,6.2,0,9.4c0,0.4,0,0.9,0,1.3c0,0.4,0.6,0.4,0.6,0c0-3.1,0-6.2,0-9.4
						c0-0.4,0-0.9,0-1.3c0-0.2-0.1-0.3-0.3-0.3c-1.8,0-3.5,0-5.3,0c-0.3,0-0.5,0-0.8,0c-0.2,0-0.3,0.1-0.3,0.3c0,3.1,0,6.2,0,9.4
						c0,0.4,0,0.9,0,1.3c0,0.2,0.1,0.3,0.3,0.3c1.8,0,3.5,0,5.3,0c0.3,0,0.5,0,0.8,0C41.1,39.8,41.1,39.2,40.7,39.2z"/>
				</g>
			</g>
		</g>
		<g id="XMLID_00000101097642878845327810000013786665249344011161_">
			<g id="XMLID_00000096768575089481474520000016743850176105813894_">
				<g>
					<rect id="XMLID_00000111157070126631274340000007639329871290398380_" x="19.6" y="28.8" class="st12" width="12" height="5"/>
				</g>
			</g>
			<g id="XMLID_00000111150566574410295940000015515925180518249132_">
				<g id="XMLID_00000182489806953821480360000003817202961422217617_">
					<path id="XMLID_00000176045424416780883240000006316909393485399982_" class="st11" d="M31.6,33.5c-1.4,0-2.7,0-4.1,0
						c-2.2,0-4.3,0-6.5,0c-0.5,0-1,0-1.5,0c0.1,0.1,0.2,0.2,0.3,0.3c0-1.7,0-3.4,0-5c-0.1,0.1-0.2,0.2-0.3,0.3c1.4,0,2.7,0,4.1,0
						c2.2,0,4.3,0,6.5,0c0.5,0,1,0,1.5,0c-0.1-0.1-0.2-0.2-0.3-0.3c0,1.7,0,3.4,0,5c0,0.4,0.6,0.4,0.6,0c0-1.7,0-3.4,0-5
						c0-0.2-0.1-0.3-0.3-0.3c-1.4,0-2.7,0-4.1,0c-2.2,0-4.3,0-6.5,0c-0.5,0-1,0-1.5,0c-0.2,0-0.3,0.1-0.3,0.3c0,1.7,0,3.4,0,5
						c0,0.2,0.1,0.3,0.3,0.3c1.4,0,2.7,0,4.1,0c2.2,0,4.3,0,6.5,0c0.5,0,1,0,1.5,0C32.1,34.1,32.1,33.5,31.6,33.5z"/>
				</g>
			</g>
		</g>
		<g id="XMLID_00000139255388287613891210000000242513677632765104_" class="st5">
			<g id="XMLID_00000129204988171107289310000016383289473041255850_">
				<path id="XMLID_00000114757452400070070190000009350952389834768785_" class="st6" d="M29.4,42.6H15c-0.1,0-0.2-0.1-0.2-0.2l0,0
					c0-0.1,0.1-0.2,0.2-0.2h14.4c0.1,0,0.2,0.1,0.2,0.2l0,0C29.6,42.5,29.5,42.6,29.4,42.6z"/>
			</g>
		</g>
		<g id="XMLID_00000136381850224092571940000017260819940394268555_" class="st5">
			<g id="XMLID_00000171700285992179947980000014681805186435020962_">
				<path id="XMLID_00000057150624069313486480000008315746989892327079_" class="st6" d="M30.8,42.6h-0.4c-0.1,0-0.2-0.1-0.2-0.2
					l0,0c0-0.1,0.1-0.2,0.2-0.2h0.4c0.1,0,0.2,0.1,0.2,0.2l0,0C31,42.5,30.9,42.6,30.8,42.6z"/>
			</g>
		</g>
		<g id="XMLID_00000178190692608917710720000005575119549421500818_">
			<g id="XMLID_00000093893125135440758460000016552157815745910153_">
				<polygon id="XMLID_00000081607876359628765530000011694692531703138443_" class="st13" points="26.7,44.1 19,44.1 18.4,36.1 
					26.1,36.1 				"/>
			</g>
			<g id="XMLID_00000131334632426508227410000001348659035908327848_">
				<g id="XMLID_00000154428178076844866510000011217406230159090314_">
					<path id="XMLID_00000113343776472322791560000000135751559970705062_" class="st11" d="M26.7,44c-2.2,0-4.5,0-6.7,0
						c-0.3,0-0.6,0-1,0l0.1,0.1c-0.2-2.3-0.4-4.7-0.5-7c0-0.3-0.1-0.7-0.1-1l-0.1,0.1c2.2,0,4.5,0,6.7,0c0.3,0,0.6,0,1,0L26,36.1
						c0.2,2.3,0.4,4.7,0.5,7c0,0.3,0.1,0.7,0.1,1C26.6,44.3,26.9,44.3,26.7,44c-0.1-2.2-0.3-4.6-0.4-6.9c0-0.3-0.1-0.7-0.1-1
						c0-0.1-0.1-0.1-0.1-0.1c-2.2,0-4.5,0-6.7,0c-0.3,0-0.6,0-1,0c-0.1,0-0.1,0.1-0.1,0.1c0.2,2.3,0.4,4.7,0.5,7
						c0,0.3,0.1,0.7,0.1,1c0,0.1,0.1,0.1,0.1,0.1c2.2,0,4.5,0,6.7,0c0.3,0,0.6,0,1,0C26.8,44.2,26.8,44,26.7,44z"/>
				</g>
			</g>
		</g>
		<g id="XMLID_00000120559021246647754350000010069784195451208858_">
			<g id="XMLID_00000035506748441211779720000005802074519840718999_">
				<polygon id="XMLID_00000107589826938162852430000011701669890065709193_" class="st14" points="26.1,36.1 25.3,44.6 17.7,44.6 
					18.4,36.1 				"/>
			</g>
			<g id="XMLID_00000001656158247451816980000006297120412721407892_">
				<g id="XMLID_00000034812336190276229690000005277265570954997162_">
					<path id="XMLID_00000098923638849395099230000000985644904670688956_" class="st11" d="M25.9,36.1c-0.2,2.5-0.4,5-0.6,7.4
						c0,0.4-0.1,0.7-0.1,1.1l0.1-0.1c-2.2,0-4.5,0-6.7,0c-0.3,0-0.6,0-1,0l0.1,0.1c0.2-2.5,0.4-5,0.6-7.4c0-0.4,0.1-0.7,0.1-1.1
						l-0.1,0.1c2.2,0,4.5,0,6.7,0c0.3,0,0.6,0,1,0c0.2,0,0.2-0.2,0-0.2c-2.2,0-4.5,0-6.7,0c-0.3,0-0.6,0-1,0c-0.1,0-0.1,0.1-0.1,0.1
						c-0.2,2.5-0.4,5-0.6,7.4c0,0.4-0.1,0.7-0.1,1.1c0,0.1,0.1,0.1,0.1,0.1c2.2,0,4.5,0,6.7,0c0.3,0,0.6,0,1,0
						c0.1,0,0.1-0.1,0.1-0.1c0.2-2.5,0.4-5,0.6-7.4c0-0.4,0.1-0.7,0.1-1.1C26.2,36,26,36,25.9,36.1z"/>
				</g>
			</g>
		</g>
		<g id="XMLID_00000067941890579463389200000000115437314359253934_">
			<g id="XMLID_00000026137553281953918720000012841651591017395328_">
				
					<rect id="XMLID_00000032647707113787273660000009927751632857437061_" x="35.5" y="31.4" class="st15" width="4.3" height="1.4"/>
			</g>
			<g id="XMLID_00000137811684240426452830000010859840983124093600_">
				<g id="XMLID_00000034051954723789572290000017201325974241766799_">
					<path id="XMLID_00000134207468323534028460000002957049110010371245_" class="st11" d="M39.8,32.6c-1.4,0-2.9,0-4.3,0
						c0.1,0.1,0.1,0.1,0.2,0.2c0-0.5,0-0.9,0-1.4c-0.1,0.1-0.1,0.1-0.2,0.2c1.4,0,2.9,0,4.3,0c-0.1-0.1-0.1-0.1-0.2-0.2
						c0,0.5,0,0.9,0,1.4c0,0.2,0.3,0.2,0.3,0c0-0.5,0-0.9,0-1.4c0-0.1-0.1-0.2-0.2-0.2c-1.4,0-2.9,0-4.3,0c-0.1,0-0.2,0.1-0.2,0.2
						c0,0.5,0,0.9,0,1.4c0,0.1,0.1,0.2,0.2,0.2c1.4,0,2.9,0,4.3,0C40,32.9,40,32.6,39.8,32.6z"/>
				</g>
			</g>
		</g>
		<g id="XMLID_00000090981129766446202290000010125995633878913434_">
			<g id="XMLID_00000168107046552242038950000008427763032476309416_">
				<path id="XMLID_00000031175051445899522070000006739275122836804484_" class="st11" d="M37.6,29.6c-0.7,0.6-1.4,1.1-2.1,1.7
					c-0.1,0.1,0,0.3,0.1,0.3c1.4,0,2.9,0,4.3,0c0.1,0,0.2-0.2,0.1-0.3c-0.7-0.6-1.4-1.1-2.1-1.7c-0.2-0.1-0.4,0.1-0.2,0.2
					c0.7,0.6,1.4,1.1,2.1,1.7c0-0.1,0.1-0.2,0.1-0.3c-1.4,0-2.9,0-4.3,0c0,0.1,0.1,0.2,0.1,0.3c0.7-0.6,1.4-1.1,2.1-1.7
					C38,29.7,37.7,29.5,37.6,29.6z"/>
			</g>
		</g>
		<g id="XMLID_00000101075034429893891150000010929626831686772413_">
			<rect id="XMLID_00000020368411702286705780000004459598764948975807_" x="20" y="32.7" class="st11" width="11.4" height="0.8"/>
			<path id="XMLID_00000034804646333521503520000010246474753260439980_" class="st15" d="M31.4,33.7H19.9v-1h11.6v1H31.4z
				 M20.1,33.5h11.2v-0.6H20.1V33.5z"/>
		</g>
		<g id="XMLID_00000074439301471138840730000003681644844279037608_">
			<g id="XMLID_00000000901449496960070020000015278224539773018539_">
				<path id="XMLID_00000154412854938898606850000008586791524868601247_" class="st11" d="M30.5,29.6c-0.6,0.6-1.3,1.1-1.9,1.7
					c-0.2,0.1,0.1,0.4,0.2,0.2c0.6-0.6,1.3-1.1,1.9-1.7C30.9,29.7,30.6,29.5,30.5,29.6L30.5,29.6z"/>
			</g>
		</g>
		<g id="XMLID_00000141418697423634373040000005818493168778776486_">
			<g id="XMLID_00000114783155677226113750000012098962030132742029_">
				<path id="XMLID_00000166667585067311175460000013404421877641246396_" class="st11" d="M30.8,30.4c-0.4,0.4-0.7,0.8-1.1,1.1
					c-0.1,0.2,0.1,0.4,0.2,0.2c0.4-0.4,0.7-0.8,1.1-1.1C31.2,30.5,31,30.3,30.8,30.4L30.8,30.4z"/>
			</g>
		</g>
		<g id="XMLID_00000045578479538355063650000007422260683105746074_">
			<path id="XMLID_00000150078479471112854340000018297953234210778242_" class="st11" d="M40.1,34.5c0,0.2-0.2,0.4-0.4,0.4
				s-0.4-0.2-0.4-0.4s0.2-0.4,0.4-0.4C39.9,34.1,40.1,34.3,40.1,34.5z"/>
		</g>
		<g>
			<path class="st4" d="M44.7,23.4c-0.1-0.3-0.1-0.6-0.2-0.9c-0.5-2.3-1-4.6-1.4-6.8c-1,0-1.9,0-2.9,0c0.1,0.7,0.2,1.5,0.2,2.2
				c0.2,1.9,0.5,3.7,0.6,5.6c0,0.3,0.1,0.7,0.3,1c0.4,0.6,1.1,0.8,1.8,0.7c0.6-0.1,1.1-0.4,1.4-1C44.6,23.9,44.7,23.7,44.7,23.4z"/>
			<path class="st4" d="M45.3,23.3c-0.5-2.4-1-4.7-1.5-7.1c-0.1-0.3-0.1-0.7-0.2-1c0-0.1-0.2-0.2-0.3-0.2c-1.2,0-2.4,0-3.5,0
				c-1.2,0-2.4,0-3.6,0c-1.4,0-2.8,0-4.2,0c-1.4,0-2.9,0-4.3,0c-1.3,0-2.6,0-3.9,0c-1.2,0-2.3,0-3.5,0c-1.1,0-2.3,0-3.4,0
				c-0.1,0-0.3,0.1-0.3,0.2c-0.6,2.3-1.2,4.6-1.8,6.9c-0.1,0.4-0.2,0.7-0.3,1.1c-0.1,0.3,0,0.6,0.1,0.9c0.2,0.7,0.5,1.3,1.2,1.6
				c0.9,0.4,2.2,0.2,2.9-0.6c0.1-0.2,0.2-0.3,0.3-0.5c0.3,0.6,0.8,1.1,1.5,1.3c0.8,0.2,1.7,0.1,2.3-0.5c0.2-0.2,0.4-0.5,0.6-0.8
				c0.3,0.6,0.8,1.1,1.5,1.3c1.1,0.3,2.2-0.3,2.8-1.3c0.3,0.6,0.8,1,1.4,1.2c0.8,0.2,1.7,0.1,2.4-0.4c0.3-0.2,0.5-0.5,0.6-0.8
				c0.3,0.6,0.8,1.1,1.6,1.2c1.2,0.2,2.3-0.2,2.8-1.3c0.4,0.9,1.3,1.4,2.3,1.3c0.8-0.1,1.6-0.6,2-1.3c0.1,0.2,0.2,0.3,0.3,0.5
				c0.5,0.6,1.3,0.9,2.1,0.8C44.4,25.8,45.3,24.7,45.3,23.3C45.3,23.4,45.3,23.3,45.3,23.3z M43.1,25.2c-0.7,0.1-1.4-0.1-1.8-0.7
				c-0.2-0.3-0.3-0.7-0.3-1c-0.1-1.9-0.4-3.7-0.6-5.6c-0.1-0.7-0.2-1.5-0.2-2.2c1,0,1.9,0,2.9,0c0.5,2.3,1,4.6,1.4,6.8
				c0.1,0.3,0.1,0.6,0.2,0.9c0,0.3-0.1,0.5-0.2,0.8C44.3,24.8,43.8,25.2,43.1,25.2z M39.7,24.8c-0.6,0.5-1.6,0.7-2.3,0.2
				c-0.5-0.4-0.7-1-0.8-1.6c0-0.9,0-1.8,0-2.6c0-1.7,0-3.4-0.1-5.1c1,0,2,0,3,0c0.2,1.9,0.4,3.7,0.6,5.6c0,0.2,0,0.4,0.1,0.5
				c0.1,0.6,0.1,1.1,0.2,1.7c0,0.1,0,0,0,0.1C40.2,24,40,24.5,39.7,24.8z M34.6,25.2c-1.1,0.2-1.9-0.4-2.2-1.4
				c-0.1-0.2-0.1-0.3-0.1-0.4c0-0.2,0-0.3,0-0.5c0-0.8,0-1.7,0-2.5c0-1.6,0-3.2,0-4.8c1.2,0,2.4,0,3.6,0c0,1.3,0,2.7,0.1,4
				c0,0.9,0,1.9,0,2.8c0,0.3,0,0.7,0,1.1l0,0l0,0v0.1c0,0.1,0,0.1-0.1,0.2c-0.1,0.2-0.1,0.4-0.2,0.6C35.4,24.8,35,25.1,34.6,25.2z
				 M30.2,25.2c-0.8,0.1-1.6-0.1-2-0.8c-0.1-0.2-0.2-0.5-0.2-0.7s0-0.1,0-0.3c0-0.1,0-0.2,0-0.3c0-0.8,0-1.6,0-2.4
				c0-1.7,0-3.4,0-5.1c1.2,0,2.5,0,3.7,0c0,1.9,0,3.7,0,5.6l0,0c0,0.5,0,1,0,1.5c0,0.2,0,0.4,0,0.6v0.1l0,0c0,0,0,0,0,0.1l0,0l0,0
				c0,0.2-0.1,0.4-0.2,0.6C31.2,24.7,30.8,25.1,30.2,25.2z M25.8,25.2c-1.1,0.2-1.8-0.5-2.1-1.5c0-0.1-0.1-0.2-0.1-0.4l0,0l0,0
				c0-0.2,0-0.4,0-0.5c0-0.8,0.1-1.7,0.1-2.5c0.1-1.6,0.2-3.1,0.3-4.7c1.1,0,2.2,0,3.3,0c0,1.3,0,2.7,0,4c0,0.9,0,1.8,0,2.8
				c0,0.3,0,0.6,0,0.8c0,0.1,0,0.1,0,0.2l0,0l0,0C27.1,24.2,26.7,25.1,25.8,25.2z M23,22.7c0,0.2,0,0.3,0,0.5c0,0.1,0,0.1,0,0.2l0,0
				l0,0l0,0c0,0.2-0.1,0.4-0.2,0.6c-0.2,0.6-0.6,1-1.2,1.1c-0.8,0.2-1.6-0.1-2-0.8c-0.1-0.2-0.2-0.5-0.3-0.7c0-0.1,0-0.2,0-0.2l0,0
				c0.3-1.8,0.6-3.6,0.9-5.3c0.1-0.8,0.3-1.6,0.4-2.4c1,0,1.9,0,2.9,0c-0.1,1.8-0.2,3.7-0.3,5.5c0,0.4,0,0.8-0.1,1.2
				C23,22.4,23,22.6,23,22.7z M17.5,25.1c-0.4,0.2-1,0.3-1.4,0.1c-0.6-0.2-0.9-0.8-1-1.3c0-0.2,0-0.3-0.1-0.5c0,0,0,0,0-0.1
				c0.1-0.4,0.2-0.7,0.3-1.1c0.4-1.3,0.7-2.7,1.1-4c0.2-0.9,0.5-1.7,0.7-2.6c0.9,0,1.8,0,2.7,0c-0.2,1.3-0.4,2.5-0.6,3.8
				c-0.1,0.7-0.2,1.5-0.4,2.2c-0.1,0.7-0.2,1.4-0.3,2C18.4,24.3,18.1,24.8,17.5,25.1z"/>
			<path class="st4" d="M27.3,23.4L27.3,23.4c0-0.1,0-0.1,0-0.2c0-0.3,0-0.6,0-0.8c0-0.9,0-1.8,0-2.8c0-1.3,0-2.7,0-4
				c-1.1,0-2.2,0-3.3,0c-0.1,1.6-0.2,3.1-0.3,4.7c0,0.8-0.1,1.7-0.1,2.5c0,0.2,0,0.4,0,0.5l0,0l0,0c0,0.1,0,0.2,0.1,0.4
				c0.3,1,1,1.7,2.1,1.5C26.7,25.1,27.1,24.2,27.3,23.4L27.3,23.4z"/>
			<path class="st4" d="M35.9,23.8c0-0.1,0-0.1,0.1-0.2v-0.1l0,0l0,0c0-0.3,0-0.7,0-1.1c0-0.9,0-1.9,0-2.8c0-1.3,0-2.7-0.1-4
				c-1.2,0-2.4,0-3.6,0c0,1.6,0,3.2,0,4.8c0,0.8,0,1.7,0,2.5c0,0.2,0,0.3,0,0.5c0,0.1,0,0.2,0.1,0.4c0.3,1,1.1,1.6,2.2,1.4
				c0.5-0.1,0.9-0.4,1.1-0.8C35.8,24.2,35.9,24,35.9,23.8z"/>
			<path class="st4" d="M18.9,21.7c0.1-0.7,0.2-1.5,0.4-2.2c0.2-1.3,0.4-2.5,0.6-3.8c-0.9,0-1.8,0-2.7,0c-0.2,0.9-0.5,1.7-0.7,2.6
				c-0.4,1.3-0.7,2.7-1.1,4c-0.1,0.4-0.2,0.7-0.3,1.1c0,0,0,0,0,0.1c0,0.2,0,0.3,0.1,0.5c0.1,0.6,0.4,1.1,1,1.3
				c0.5,0.1,1,0.1,1.4-0.1c0.5-0.3,0.8-0.8,1-1.4C18.7,23,18.8,22.3,18.9,21.7z"/>
			<path class="st15" d="M24,15c-1.2,0-2.4,0-3.6,0c-0.2,0.9-0.3,1.8-0.5,2.8c-0.4,2-0.7,4.1-1.1,6.1c0,0,0,0,0,0.1s0,0.2,0.1,0.3
				c0.1,0.3,0.2,0.6,0.4,0.8c0.5,0.8,1.6,1.1,2.5,0.9c0.7-0.2,1.3-0.7,1.5-1.3c0.1-0.2,0.2-0.4,0.2-0.7l0,0c0,0,0,0,0-0.1l0,0
				c0-0.1,0-0.2,0-0.2c0-0.2,0-0.4,0-0.6c0-0.1,0-0.2,0-0.4c0-0.5,0.1-0.9,0.1-1.4C23.7,19.2,23.9,17.1,24,15z"/>
			<path class="st15" d="M32.1,24L32.1,24L32.1,24c0-0.1,0-0.1,0-0.1s0,0,0-0.1v-0.1c0-0.2,0-0.4,0-0.6c0-0.6,0-1.1,0-1.7l0,0
				c0-2.1,0-4.3,0-6.4c-1.6,0-3.1,0-4.7,0c0,1.9,0,3.9,0,5.8c0,0.9,0,1.8,0,2.7c0,0.1,0,0.2,0,0.3c0,0.2,0,0.2,0.1,0.3
				c0.1,0.3,0.2,0.5,0.3,0.8c0.5,0.8,1.5,1.1,2.5,0.9c0.8-0.1,1.3-0.6,1.6-1.2C32,24.5,32.1,24.3,32.1,24z"/>
			<path class="st15" d="M40.8,23.9c-0.1-0.6-0.1-1.3-0.2-1.9c0-0.2,0-0.4-0.1-0.6c-0.3-2.2-0.5-4.3-0.8-6.5c-1.2,0-2.5,0-3.7,0
				c0.1,2,0.1,3.9,0.1,5.9c0,1,0,2,0.1,3c0,0.7,0.4,1.4,1,1.8c0.8,0.6,2.1,0.4,2.8-0.2C40.5,25,40.7,24.5,40.8,23.9
				C40.8,23.9,40.8,24,40.8,23.9z"/>
		</g>
		<g>
			<g>
				<g>
					<g>
						<g>
							<path class="st16" d="M11,37.9l14.1-5.8c1.9-0.8,4.1-0.8,6.1-0.1l7.4,3.7c1.6,0.6,3,2.1,2.8,2.4c-1.5,1.7-4.1,1.7-5.3,1.2
								l-3.8-1.2c-0.5-0.2-1.1,0-1.5,0.5c-0.4,0.7-0.2,1.5,0.6,1.9l3.3,1.6c0.9,0.5,2,0.6,3,0.3l9.5-2.3c1.4-0.3,2.7,0.4,3.3,1.7
								l0.2,0.6c0.1,0.3,0,0.6-0.3,0.7L35.7,48c-3.1,1.1-6.9,0.9-9.7-0.8l-4.6-2c-0.8-0.4-1.8-0.4-2.6,0l-4.1,1.7L11,37.9z"/>
						</g>
					</g>
				</g>
			</g>
		</g>
	</g>
	<path class="st4" d="M18.3,47.4l-4.9-11.6c-0.2-0.5-0.8-0.7-1.3-0.5l-12,5c0.2,5.5,1,10.4,3.6,14.3l14.1-5.9
		C18.2,48.5,18.5,47.9,18.3,47.4z"/>
</g>
</svg>
