<?xml version="1.0" encoding="utf-8"?>
<!-- Generator: Adobe Illustrator 27.9.0, SVG Export Plug-In . SVG Version: 6.00 Build 0)  -->
<svg version="1.1" id="Layer_1" xmlns="http://www.w3.org/2000/svg" xmlns:xlink="http://www.w3.org/1999/xlink" x="0px" y="0px"
	 viewBox="0 0 59.6 63.6" style="enable-background:new 0 0 59.6 63.6;" xml:space="preserve">
<style type="text/css">
	.st0{fill:#38A70C;}
	.st1{clip-path:url(#SVGID_00000023963392549698151350000015376349040835895224_);}
	.st2{fill:#870EAB;}
	.st3{fill:#005EFD;}
	.st4{fill:#FFE100;}
	.st5{fill:#FF7400;}
	.st6{fill:#FF002A;}
	.st7{fill:#21191E;}
	.st8{fill:#80491E;}
	.st9{fill:#68D4F7;}
	.st10{fill:#FF92BA;}
	.st11{fill:#FFFFFF;}
</style>
<path class="st0" d="M29.4,63.6c29.9,0,29.4-14.1,29.4-31.8S59.4,0,29.4,0S0,14.1,0,31.8S-0.5,63.6,29.4,63.6z"/>
<g>
	<g>
		<defs>
			<ellipse id="SVGID_1_" cx="29.8" cy="31.8" rx="29.4" ry="31.8"/>
		</defs>
		<clipPath id="SVGID_00000075849585584696939660000011307149593459626369_">
			<use xlink:href="#SVGID_1_"  style="overflow:visible;"/>
		</clipPath>
		
			<g id="XMLID_00000036247983195029519440000013583450115547763644_" style="clip-path:url(#SVGID_00000075849585584696939660000011307149593459626369_);">
			<g id="XMLID_00000108272677472912391400000016471428301013660297_">
				
					<rect id="XMLID_00000109718416169545432470000017737571431349672375_" x="-4.1" y="53.3" class="st2" width="76.1" height="10.8"/>
				
					<rect id="XMLID_00000155860062721838624500000002719782272654471843_" x="-4.1" y="42.6" class="st3" width="76.1" height="10.8"/>
				
					<rect id="XMLID_00000129926209272852313790000013034771665682633638_" x="-4.1" y="31.8" class="st0" width="76.1" height="10.8"/>
				
					<rect id="XMLID_00000152257492516069176240000000792666490157343910_" x="-4.1" y="21" class="st4" width="76.1" height="10.8"/>
				
					<rect id="XMLID_00000023273697356975596850000005405446328611636123_" x="-4.1" y="10.3" class="st5" width="76.1" height="10.8"/>
				
					<rect id="XMLID_00000039117386214846724150000000077103418616498081_" x="-4.1" y="-0.5" class="st6" width="76.1" height="10.8"/>
			</g>
			<polygon id="XMLID_00000065034437302655689770000002950774717726594227_" class="st7" points="3.9,2.4 9.7,-3.4 9.7,-3.4 			"/>
			<polygon id="XMLID_00000061442194339383850790000004661197438927120277_" class="st7" points="10.9,-0.5 2.7,-0.5 35,31.8 
				2.7,64.1 10.9,64.1 43.2,31.8 			"/>
			<polygon id="XMLID_00000165204530728288224290000014255429472985906319_" class="st8" points="2.7,-0.5 -4.1,-0.5 -4.1,0.8 
				26.8,31.8 -4.1,62.8 -4.1,64.1 2.7,64.1 35,31.8 			"/>
			<polygon id="XMLID_00000085230516261413719910000012408806968871644035_" class="st9" points="18.7,31.8 -4.1,54.6 -4.1,62.8 
				26.8,31.8 -4.1,0.8 -4.1,9 			"/>
			<polygon id="XMLID_00000151522781811367075410000003651619090354637232_" class="st10" points="-4.1,9 -4.1,17.1 10.5,31.8 
				-4.1,46.5 -4.1,54.6 18.7,31.8 			"/>
			<polygon id="XMLID_00000090989770001067738170000007168768092128527244_" class="st11" points="-4.1,17.1 -4.1,46.5 10.5,31.8 
							"/>
		</g>
	</g>
</g>
</svg>
