<?xml version="1.0" encoding="UTF-8"?>
<svg id="Layer_1" xmlns="http://www.w3.org/2000/svg" xmlns:xlink="http://www.w3.org/1999/xlink" version="1.1" viewBox="0 0 192.6 244">
  <!-- Generator: Adobe Illustrator 29.3.0, SVG Export Plug-In . SVG Version: 2.1.0 Build 146)  -->
  <defs>
    <style>
      .st0 {
        fill: none;
      }

      .st1 {
        fill: #38a70c;
      }

      .st2 {
        fill: #ffe100;
      }

      .st3 {
        fill: #68d4f7;
      }

      .st4 {
        fill: #005efd;
      }

      .st5 {
        fill: #21191e;
      }

      .st6 {
        fill: #62c83a;
      }

      .st7 {
        fill: #fff;
      }

      .st8 {
        fill: #ff002a;
      }

      .st9 {
        fill: #ff92ba;
      }

      .st10 {
        fill: #ff7400;
      }

      .st11 {
        fill: #80491e;
      }

      .st12 {
        fill: #870eab;
      }

      .st13 {
        clip-path: url(#clippath);
      }
    </style>
    <clipPath id="clippath">
      <path class="st0" d="M96.3,101.7c47.9,0,47.1-22.6,47.1-50.8S144.2,0,96.3,0s-47.1,22.6-47.1,50.8-.9,50.8,47.1,50.8Z"/>
    </clipPath>
  </defs>
  <g>
    <path class="st7" d="M29.7,173.8h15.5c.7,0,1.3-.6,1.3-1.3v-7.8c0-.7-.6-1.3-1.3-1.3h-15.5c-6.5,0-8.2-.8-8.6-7.7h23.2c.7,0,1.3-.6,1.3-1.3v-7.5c0-.7-.6-1.3-1.3-1.3h-23.2c.4-6.6,2.2-7.3,8.6-7.3h15.5c.7,0,1.3-.6,1.3-1.3v-8c0-.7-.6-1.3-1.3-1.3h-15.5c-21.7,0-21.3,10.3-21.3,23.2s-.4,23.2,21.3,23.2Z"/>
    <path class="st7" d="M71.3,173.8c17.6,0,20.7-6.8,21.2-16.2,0-.8-.6-1.4-1.3-1.4h-10.1c-.7,0-1.3.5-1.3,1.2-.6,5.2-2.6,5.9-8.5,5.9s-8.7-1.2-8.7-12.6c0-11.4.9-12.6,8.7-12.6s7.7.7,8.4,5.6c.1.7.7,1.2,1.3,1.2h10.1c.8,0,1.4-.7,1.3-1.4-.6-9.3-3.8-15.9-21.2-15.9s-21.3,10.3-21.3,23.2-.3,23.2,21.4,23.2Z"/>
    <path class="st7" d="M127.3,127.6c-1.2,0-2.3,1-2.3,2.3v14.9h-16.1v-15c0-1.2-1-2.3-2.3-2.3h-7.9c-1.2,0-2.3,1-2.3,2.3v41.7c0,1.2,1,2.3,2.3,2.3h7.9c1.2,0,2.3-1,2.3-2.3v-15.1h16.1v15.1c0,1.2,1,2.3,2.3,2.3h7.9c1.2,0,2.3-1,2.3-2.3v-41.7c0-1.2-1-2.3-2.3-2.3h-7.9Z"/>
    <path class="st7" d="M162.9,173.8c21.7,0,21.3-10.3,21.3-23.2s.4-23.2-21.3-23.2-21.3,10.3-21.3,23.2c0,13-.4,23.2,21.3,23.2ZM162.9,138c7.8,0,8.7,1.2,8.7,12.6s-.9,12.6-8.7,12.6-8.7-1.2-8.7-12.6c0-11.4.9-12.6,8.7-12.6Z"/>
  </g>
  <g>
    <path class="st6" d="M0,243v-44.5c0-.6.4-1,1-1h22.4c11.5,0,15.9,4.9,15.9,17s-2.9,17.5-15.9,17.5h-11v10.9c0,.6-.4,1-1,1H1c-.6,0-1-.4-1-1ZM20.9,221.3c4.9-.2,5.6-.7,5.6-6.8s-.7-6.3-5.6-6.3h-8.5v13h8.5Z"/>
    <path class="st6" d="M44,198.5c0-.6.4-1,1-1h22.9c10.7.2,16,2.5,16,14.1s0,12.3-8.8,14.3v.5c5.1.2,8.4,3,8.4,8.2v8.4c0,.6-.4,1-1,1h-10.4c-.6,0-1-.4-1-1v-5.5c.1-3.5-1.4-5.8-5.1-5.8h-9.6v11.3c0,.6-.4,1-1,1h-10.4c-.6,0-1-.4-1-1v-44.5ZM66,220.9c5.3,0,5.1-2,5.1-7.3s-1.1-5.3-5.1-5.3h-9.6v12.6h9.6Z"/>
    <path class="st6" d="M101.7,244h-10.4c-.6,0-1-.4-1-1v-44.5c0-.6.4-1,1-1h10.4c.6,0,1,.4,1,1v44.5c0,.6-.4,1-1,1Z"/>
    <path class="st6" d="M109.8,198.5c0-.6.4-1,1-1h22.6c13,0,18.7,4.8,18.7,18v9.7c0,12.7-4.1,18.7-17,18.7h-24.2c-.6,0-1-.4-1-1v-44.5ZM122.2,233.2h10.8c4.6,0,6.3-3,6.3-7.9v-9.7c0-6-1.9-7.3-6.3-7.3h-10.8v24.9Z"/>
    <path class="st6" d="M171,216.2h18.8c.6,0,1,.4,1,1v6.6c0,.6-.4,1-1,1h-18.8v9.1h20.6c.6,0,1,.4,1,1v8.2c0,.6-.4,1-1,1h-32c-.6,0-1-.4-1-1v-44.5c0-.6.4-1,1-1h31.5c.6,0,1,.4,1,1v8.2c0,.6-.4,1-1,1h-20.1v8.5Z"/>
  </g>
  <g>
    <path class="st1" d="M96.3,101.7c47.9,0,47.1-22.6,47.1-50.8S144.2,0,96.3,0s-47.1,22.6-47.1,50.8-.9,50.8,47.1,50.8Z"/>
    <g class="st13">
      <g>
        <g>
          <rect class="st12" x="42" y="85.3" width="121.7" height="17.2"/>
          <rect class="st4" x="42" y="68.1" width="121.7" height="17.2"/>
          <rect class="st1" x="42" y="50.9" width="121.7" height="17.2"/>
          <rect class="st2" x="42" y="33.6" width="121.7" height="17.2"/>
          <rect class="st10" x="42" y="16.4" width="121.7" height="17.2"/>
          <rect class="st8" x="42" y="-.8" width="121.7" height="17.2"/>
        </g>
        <rect class="st5" x="53" y="-.8" width="13.1" height="0" transform="translate(18 41.9) rotate(-45)"/>
        <polygon class="st5" points="66 -.8 53 -.8 104.6 50.9 53 102.5 66 102.5 117.7 50.9 66 -.8"/>
        <polygon class="st11" points="53 -.8 42 -.8 42 1.3 91.6 50.9 42 100.4 42 102.5 53 102.5 104.6 50.9 53 -.8"/>
        <polygon class="st3" points="78.5 50.9 42 87.4 42 100.4 91.6 50.9 42 1.3 42 14.3 78.5 50.9"/>
        <polygon class="st9" points="42 14.3 42 27.4 65.5 50.9 42 74.3 42 87.4 78.5 50.9 42 14.3"/>
        <polygon class="st7" points="42 27.4 42 74.3 65.5 50.9 42 27.4"/>
      </g>
    </g>
  </g>
</svg>