<?xml version="1.0" encoding="utf-8"?>
<!-- Generator: Adobe Illustrator 27.9.0, SVG Export Plug-In . SVG Version: 6.00 Build 0)  -->
<svg version="1.1" id="Layer_1" xmlns="http://www.w3.org/2000/svg" xmlns:xlink="http://www.w3.org/1999/xlink" x="0px" y="0px"
	 viewBox="0 0 452.7 63.6" style="enable-background:new 0 0 452.7 63.6;" xml:space="preserve">
<style type="text/css">
	.st0{fill:#38A70C;}
	.st1{fill:#FFFFFF;}
	.st2{fill:#62C83A;}
	.st3{clip-path:url(#SVGID_00000147931313192540695670000009567055458198329776_);}
	.st4{fill:#870EAB;}
	.st5{fill:#005EFD;}
	.st6{fill:#FFE100;}
	.st7{fill:#FF7400;}
	.st8{fill:#FF002A;}
	.st9{fill:#21191E;}
	.st10{fill:#80491E;}
	.st11{fill:#68D4F7;}
	.st12{fill:#FF92BA;}
</style>
<g>
	<path class="st0" d="M29.4,63.6c29.9,0,29.4-14.1,29.4-31.8S59.3,0,29.4,0S0,14.1,0,31.8C0,49.6-0.5,63.6,29.4,63.6z"/>
	<g>
		<g>
			<path id="XMLID_00000062193217620647311160000003586097321665725101_" class="st1" d="M96.8,54.8h15.5c0.7,0,1.3-0.6,1.3-1.3
				v-7.8c0-0.7-0.6-1.3-1.3-1.3H96.8c-6.5,0-8.2-0.8-8.6-7.7h23.2c0.7,0,1.3-0.6,1.3-1.3v-7.5c0-0.7-0.6-1.3-1.3-1.3H88.2
				c0.4-6.6,2.2-7.3,8.6-7.3h15.5c0.7,0,1.3-0.6,1.3-1.3v-8c0-0.7-0.6-1.3-1.3-1.3H96.8c-21.7,0-21.3,10.3-21.3,23.2
				C75.5,44.5,75.1,54.8,96.8,54.8z"/>
			<path id="XMLID_00000043419283009581529970000003837171164632000396_" class="st1" d="M138.4,54.8c17.6,0,20.7-6.8,21.2-16.2
				c0.1-0.8-0.6-1.4-1.3-1.4h-10.1c-0.7,0-1.3,0.5-1.3,1.2c-0.6,5.2-2.6,5.9-8.5,5.9c-7.8,0-8.7-1.2-8.7-12.6
				c0-11.4,0.9-12.6,8.7-12.6c5.7,0,7.7,0.7,8.4,5.6c0.1,0.7,0.7,1.2,1.3,1.2h10.1c0.8,0,1.4-0.7,1.3-1.4
				C159,15,155.8,8.4,138.4,8.4c-21.7,0-21.3,10.3-21.3,23.2C117.1,44.5,116.7,54.8,138.4,54.8z"/>
			<path id="XMLID_00000136388459192883642080000005383266204269156489_" class="st1" d="M194.3,8.5c-1.2,0-2.3,1-2.3,2.3v14.9H176
				v-15c0-1.2-1-2.3-2.3-2.3h-7.9c-1.2,0-2.3,1-2.3,2.3v41.7c0,1.2,1,2.3,2.3,2.3h7.9c1.2,0,2.3-1,2.3-2.3V37.4h16.1v15.1
				c0,1.2,1,2.3,2.3,2.3h7.9c1.2,0,2.3-1,2.3-2.3V10.8c0-1.2-1-2.3-2.3-2.3L194.3,8.5z"/>
			<path id="XMLID_00000000193588091579147420000002479130408912615058_" class="st1" d="M230,54.8c21.7,0,21.3-10.3,21.3-23.2
				S251.7,8.4,230,8.4s-21.3,10.3-21.3,23.2C208.7,44.5,208.3,54.8,230,54.8z M230,19c7.8,0,8.7,1.2,8.7,12.6s-0.9,12.6-8.7,12.6
				c-7.8,0-8.7-1.2-8.7-12.6C221.3,20.2,222.2,19,230,19z"/>
		</g>
		<g>
			<path class="st2" d="M260.1,54V9.5c0-0.6,0.4-1,1-1h22.4c11.5,0,15.9,4.9,15.9,17c0,13.1-2.9,17.5-15.9,17.5h-11V54
				c0,0.6-0.4,1-1,1h-10.4C260.6,55,260.1,54.5,260.1,54z M281,32.3c4.9-0.2,5.6-0.7,5.6-6.8c0-4.8-0.7-6.3-5.6-6.3h-8.5v13H281z"/>
			<path class="st2" d="M304.2,9.5c0-0.6,0.4-1,1-1h22.9c10.7,0.2,16,2.5,16,14.1c0,7.7,0,12.3-8.8,14.3v0.5c5.1,0.2,8.4,3,8.4,8.2
				V54c0,0.6-0.4,1-1,1h-10.4c-0.6,0-1-0.4-1-1v-5.5c0.1-3.5-1.4-5.8-5.1-5.8h-9.6V54c0,0.6-0.4,1-1,1h-10.4c-0.6,0-1-0.4-1-1V9.5z
				 M326.2,31.8c5.3,0,5.1-2,5.1-7.3c0-4.2-1.1-5.3-5.1-5.3h-9.6v12.6H326.2z"/>
			<path class="st2" d="M361.9,55h-10.4c-0.6,0-1-0.4-1-1V9.5c0-0.6,0.4-1,1-1h10.4c0.6,0,1,0.4,1,1V54
				C362.9,54.5,362.4,55,361.9,55z"/>
			<path class="st2" d="M369.9,9.5c0-0.6,0.4-1,1-1h22.6c13,0,18.7,4.8,18.7,18v9.7c0,12.7-4.1,18.7-17,18.7h-24.2c-0.6,0-1-0.4-1-1
				V9.5z M382.3,44.2h10.8c4.6,0,6.3-3,6.3-7.9v-9.7c0-6-1.9-7.3-6.3-7.3h-10.8V44.2z"/>
			<path class="st2" d="M431.1,27.1H450c0.6,0,1,0.4,1,1v6.6c0,0.6-0.4,1-1,1h-18.8v9.1h20.6c0.6,0,1,0.4,1,1V54c0,0.6-0.4,1-1,1
				h-32c-0.6,0-1-0.4-1-1V9.5c0-0.6,0.4-1,1-1h31.5c0.6,0,1,0.4,1,1v8.2c0,0.6-0.4,1-1,1h-20.1V27.1z"/>
		</g>
	</g>
	<g>
		<defs>
			<path id="SVGID_1_" d="M29.4,63.6c29.9,0,29.4-14.1,29.4-31.8S59.3,0,29.4,0S0,14.1,0,31.8C0,49.6-0.5,63.6,29.4,63.6z"/>
		</defs>
		<clipPath id="SVGID_00000124121585755469578720000016831102241299640719_">
			<use xlink:href="#SVGID_1_"  style="overflow:visible;"/>
		</clipPath>
		
			<g id="XMLID_00000036247983195029519440000013583450115547763644_" style="clip-path:url(#SVGID_00000124121585755469578720000016831102241299640719_);">
			<g id="XMLID_00000108272677472912391400000016471428301013660297_">
				
					<rect id="XMLID_00000109718416169545432470000017737571431349672375_" x="-4.5" y="53.3" class="st4" width="76.1" height="10.8"/>
				
					<rect id="XMLID_00000155860062721838624500000002719782272654471843_" x="-4.5" y="42.6" class="st5" width="76.1" height="10.8"/>
				
					<rect id="XMLID_00000129926209272852313790000013034771665682633638_" x="-4.5" y="31.8" class="st0" width="76.1" height="10.8"/>
				
					<rect id="XMLID_00000152257492516069176240000000792666490157343910_" x="-4.5" y="21" class="st6" width="76.1" height="10.8"/>
				
					<rect id="XMLID_00000023273697356975596850000005405446328611636123_" x="-4.5" y="10.3" class="st7" width="76.1" height="10.8"/>
				
					<rect id="XMLID_00000039117386214846724150000000077103418616498081_" x="-4.5" y="-0.5" class="st8" width="76.1" height="10.8"/>
			</g>
			
				<rect id="XMLID_00000065034437302655689770000002950774717726594227_" x="2.3" y="-0.5" transform="matrix(0.7071 -0.7071 0.7071 0.7071 2.2086 4.4007)" class="st9" width="8.2" height="0"/>
			<polygon id="XMLID_00000061442194339383850790000004661197438927120277_" class="st9" points="10.5,-0.5 2.3,-0.5 34.6,31.8 
				2.3,64.1 10.5,64.1 42.8,31.8 			"/>
			<polygon id="XMLID_00000165204530728288224290000014255429472985906319_" class="st10" points="2.3,-0.5 -4.5,-0.5 -4.5,0.8 
				26.4,31.8 -4.5,62.8 -4.5,64.1 2.3,64.1 34.6,31.8 			"/>
			<polygon id="XMLID_00000085230516261413719910000012408806968871644035_" class="st11" points="18.3,31.8 -4.5,54.6 -4.5,62.8 
				26.4,31.8 -4.5,0.8 -4.5,9 			"/>
			<polygon id="XMLID_00000151522781811367075410000003651619090354637232_" class="st12" points="-4.5,9 -4.5,17.1 10.1,31.8 
				-4.5,46.5 -4.5,54.6 18.3,31.8 			"/>
			<polygon id="XMLID_00000090989770001067738170000007168768092128527244_" class="st1" points="-4.5,17.1 -4.5,46.5 10.1,31.8 			
				"/>
		</g>
	</g>
</g>
</svg>
