<?xml version="1.0" encoding="UTF-8"?>
<svg id="Layer_1" xmlns="http://www.w3.org/2000/svg" xmlns:xlink="http://www.w3.org/1999/xlink" version="1.1" viewBox="0 0 712.5 144.8">
  <!-- Generator: Adobe Illustrator 29.6.1, SVG Export Plug-In . SVG Version: 2.1.1 Build 9)  -->
  <defs>
    <style>
      .st0 {
        fill: none;
      }

      .st1 {
        fill: #38a70c;
      }

      .st2 {
        fill: #62c83a;
      }

      .st3 {
        clip-path: url(#clippath-1);
      }

      .st4 {
        fill: #fff;
      }

      .st5 {
        fill: #083085;
      }
    </style>
    <clipPath id="clippath-1">
      <path class="st0" d="M67,144.8c68.2,0,67-32.1,67-72.4S135.3,0,67,0,0,32.1,0,72.4s-1.2,72.4,67,72.4Z"/>
    </clipPath>
  </defs>
  <g>
    <path class="st5" d="M449.4,60.4h-14.7V15.4c0-.4,0-.8.2-1.1h14.9c0,.1.1.2.2.4,6.3,7.3,12.7,14.7,19.1,22,0,.1.2.2.4.3,6.5-7.6,13.1-15.2,19.6-22.7h14.9c0,.4,0,.8,0,1.2v43.9c0,.3,0,.7,0,1.1h-14.7c0,0,0-.2,0-.3v-26.4c0-.1,0-.3,0-.6-6.6,7.6-13.1,15.2-19.7,22.9-6.6-7.6-13.2-15.2-19.7-22.7,0,0-.1,0-.2,0v25.8c0,.4-.1.8-.2,1.2Z"/>
    <path class="st5" d="M311.2,14.2h49.9v11.1h-44.1c-.7,0-1.5,0-2.2.3-1.4.4-2.2,1.4-2.3,2.9-.1,1.4.4,2.5,1.6,3.1.8.4,1.7.7,2.7.7,10,0,19.9,0,29.9,0s4.1.3,6,1.2c4.3,2,7.6,5,8.4,9.9.2,1.5,0,3.1,0,4.7s-.6,4.2-1.9,5.9c-2.3,3.1-5.4,5.1-9.2,6.1-.5,0-1,.2-1.5.4h-50.9v-10.9h45.1c1.7,0,3.2-1.3,3.4-2.8.3-1.8-.4-3.2-2.2-3.9-.7-.2-1.5-.3-2.2-.3-9.9,0-19.9,0-29.8,0-4.9,0-8.9-2.1-12.1-5.8-2.9-3.4-2.7-7.6-2.1-11.5.6-4.4,3.7-7.2,7.5-9,1.8-1,4-1.3,6-1.9Z"/>
    <path class="st5" d="M641.3,60.4h-17.8c-2.7-3.9-5.3-7.9-7.9-11.8-.4-.6-.8-.8-1.5-.8-6.8,0-13.6,0-20.4,0s-.6,0-1,0v12.6h-14.7c0-.4,0-.8,0-1.2V15.5c0-.4,0-.8,0-1.3h50.4c.1,0,.2.1.4.1,2.9.3,5.5,1.5,7.8,3.2,3.3,2.6,5,5.9,4.9,10.1,0,2.5,0,5,0,7.5,0,.8,0,1.7-.3,2.5-1,4.1-3.8,6.6-7.4,8.5-.4.2-.8.4-1.3.6,1,1.4,1.8,2.7,2.7,4.1,2.1,3.1,4.2,6.3,6.2,9.5ZM592.7,36.7c.2,0,.4,0,.5,0h27.9c1.4,0,2.8-.4,3.8-1.5,1.6-1.6,2.1-4.4,1.2-6.8-.9-2.2-2.7-3.2-5-3.2h-27.8c-.2,0-.3,0-.6,0,0,3.7,0,7.5,0,11.3Z"/>
    <path class="st5" d="M559.9,60.4h-38.2c-.1,0-.3-.1-.5-.2-2.6-.4-4.9-1.5-7-3-3-2.3-5-5.2-5-9.1,0-7.1,0-14.2,0-21.3s.8-4.7,2.4-6.6c2.1-2.5,4.6-4.2,7.8-5.1,1-.3,2-.5,3-.8h37.1c.1,0,.3.1.5.1,2.9.3,5.5,1.4,7.7,3.1,3,2.4,5,5.4,5,9.3,0,7.1,0,14.1,0,21.2,0,1.5-.4,3.1-1.1,4.5-2.1,4.2-5.8,6.4-10.2,7.6-.6.1-1.2.2-1.6.4ZM541.1,49.5h9.6c3.7,0,7.1-3.3,7.2-6.9,0-3.3,0-6.6,0-9.9,0-4.6-4-7.5-7.3-7.4-6.5,0-13,0-19.5,0-3.9,0-7,3.3-7.1,7.3v9.4c0,4.3,3.3,7.6,7.6,7.6,3.1,0,6.3,0,9.5,0Z"/>
    <path class="st5" d="M223.2,60.4c.9-1.5,1.7-3.1,2.7-4.6,8-13.6,16.1-27.2,24.1-40.7.1-.3.3-.6.5-.8h14.7c.2.4.5.8.7,1.2,6.4,10.8,12.8,21.6,19.2,32.4,2.5,4.2,4.9,8.4,7.4,12.6h-17.1c-5.9-9.8-11.7-19.6-17.5-29.4-.2.2-.3.4-.4.6-4.6,7.9-9.3,15.7-13.9,23.6-1,1.7-2,3.5-3,5.2-5.8,0-11.5,0-17.3,0Z"/>
    <path class="st5" d="M390.5,60.4V25.3h-24.4v-11.1h63.5v11.1h-24.2v30.6c0,1.5,0,3,0,4.5-5,0-10,0-14.9,0Z"/>
    <path class="st5" d="M164.2,32.4c.3,0,.7,0,1.1,0h62.4v10.1h-48.7v18.1h-14.7c0-9.3,0-18.7,0-28Z"/>
    <path class="st5" d="M227.7,14.2v11.1h-62.5c-.3,0-.7,0-1,0,0-3.7,0-7.5,0-11.1h63.5Z"/>
    <path class="st5" d="M709.9,25.3c-.3,0-.7,0-1,0h-62.5v-11.1h63.5v11.1Z"/>
    <path class="st5" d="M646.5,60.4v-10.9c.3,0,.6,0,.9,0h61.9c.2,0,.5,0,.7,0v10.9c-21.2,0-42.4,0-63.5,0Z"/>
    <path class="st5" d="M709.9,42.4c-.4,0-.7,0-1.1,0h-62.4v-10.1h62.3c.3,0,.7,0,1.1,0,0,3.3,0,6.7,0,10Z"/>
  </g>
  <g>
    <path class="st1" d="M67,144.8c68.2,0,67-32.1,67-72.4S135.3,0,67,0,0,32.1,0,72.4s-1.2,72.4,67,72.4Z"/>
    <g class="st3">
      <rect class="st2" x="-2.5" y="104.5" width="140.6" height="44"/>
      <rect class="st1" x="-2.5" y="121.8" width="140.6" height="7"/>
      <g>
        <path class="st4" d="M190.8,100.8c-.1-3.9-2.4-7.4-5.9-9.2-4-3.6-9.1-5.5-14.5-5.5s-9.3,1.5-13.1,4.3h-6.7c-3.7-2.8-8.3-4.3-13.1-4.3s-9.3,1.5-13.1,4.3h-1.7v-49h2.1v-6.1h-1.2l11.3-24.4h-17.6s-.4,2.2-.4,2.2c0,0-.8,3.8-5.5,8-4.4,4-13.3,9.4-30.5,11.9l-9.3,3.5-12.8,5.5,1.3,5.2-4.7,5.3h-4s-2.1,0-2.1,0l-.8,1.4c-.2.4-5.4,9.8-7.2,16.3l-19.2,3.3-7.8,1-4.2,2.9-.7,1.5-3.9,13.3s-1.2,2.1-1.8,6.8l-2.8,2.2-11.3.9,20.9,12.8v-3.2h2.7c.6,8.9,7.9,15.9,16.9,15.9s16.6-7.2,16.9-16.3l3.6.3s.3,1.9,1.1,2.8l.8.8h14v-9l-2.1-2.4h5.7v7.5c0,3,2.4,5.4,5.4,5.4h40.3c2.4,0,4.5-1.6,5.1-3.8,1.1,8.3,8.2,14.7,16.8,14.7s13.8-4.8,16.1-11.5c2.3,6.7,8.6,11.5,16.1,11.5s17-7.6,17-17,0-1.1,0-1.7h4.5v-2.7c0-1.9-.3-3.7-.8-5.5Z"/>
        <g>
          <path class="st5" d="M30.3,96.5c-7.9,0-14.3,6.4-14.3,14.3s6.4,14.3,14.3,14.3,14.3-6.4,14.3-14.3-6.4-14.3-14.3-14.3ZM30.3,116.6c-3.2,0-5.8-2.6-5.8-5.8s2.6-5.8,5.8-5.8,5.8,2.6,5.8,5.8-2.6,5.8-5.8,5.8Z"/>
          <polygon class="st5" points="8 110.2 8 104.9 -.7 104.9 8 110.2"/>
          <path class="st5" d="M130.9,13.6h-11.2s-3,16.9-38.2,22.1h39.2l10.3-22.1Z"/>
          <polygon class="st5" points="74.9 41 104 39.8 73 39 61.9 43.7 72.4 42.8 74.9 41"/>
          <path class="st5" d="M65.2,55.1l-9.6.2h-4.5s-6.3,11.3-7.3,17.4l-21,3.6-7.2.9-3.6,2.6,40.5-7.1,12.8-17.6Z"/>
          <polygon class="st5" points="51.3 73.9 11.7 81.4 8.3 93.1 14.6 82.5 51.3 73.9"/>
          <path class="st5" d="M20.5,91l-3.6,3.1-1.5,9.1h-4.7v5.9h5.1s2.2-12.9,15-12.9c0,0,14.1,1.4,14.3,12.3l3.2.3v-12.3s-12.8-14.3-27.6-5.5Z"/>
          <path class="st5" d="M105.2,40.5s0,.3-.1.9c.1-.6.1-.9.1-.9Z"/>
          <rect class="st5" x="79.3" y="76.5" width="5" height="2.4"/>
          <path class="st5" d="M138.1,96.5c-7.9,0-14.3,6.4-14.3,14.3s6.4,14.3,14.3,14.3,14.3-6.4,14.3-14.3-6.4-14.3-14.3-14.3ZM138.1,116.6c-3.2,0-5.8-2.6-5.8-5.8s2.6-5.8,5.8-5.8,5.8,2.6,5.8,5.8-2.6,5.8-5.8,5.8Z"/>
          <path class="st5" d="M170.2,96.5c-7.9,0-14.3,6.4-14.3,14.3s6.4,14.3,14.3,14.3,14.3-6.4,14.3-14.3-6.4-14.3-14.3-14.3ZM170.2,116.6c-3.2,0-5.8-2.6-5.8-5.8s2.6-5.8,5.8-5.8,5.8,2.6,5.8,5.8-2.6,5.8-5.8,5.8Z"/>
          <path class="st5" d="M188.1,101.2h0c0-3.3-1.9-6.1-4.7-7.4-3.3-3.1-7.9-5.1-13-5.1s-8.9,1.6-12.1,4.3h-8.6c-3.3-2.7-7.5-4.3-12.1-4.3s-8.9,1.6-12.1,4.3h-5.3v-52.7h-11.6v52.7h-2.1v-54.4h15.9v-.7h-47.8v.7h31.2v54.4h-1.5c0-7.2.4-45.3.8-51.7-1.1,6-10,39.8-10,39.8l-38.2,11.9h-5.4c.5-2,2.9-12.1,2.6-12.3-.3-.2,4.6-4.1,4.6-4.1l30-3h-30.6l-6.5,5.3-.2,13.9h-1.5l.5-14.3,7.1-5.9h31.3l12.2-30.6-25.8,2.7-17.9,27.2-7.5,6.3-.6,16.6c-8.1-7.2-15.8-10-22.8-8.4-4.5,1.1-8.1,3.8-10.8,6.8h0c0,0-1.5,1.1-1.5,1.1-1.4.2-6.7,1-6.8,1.1-.1,0-.7,4.7-.7,4.7l1.4-1-2.9,2.2.4.5,8.4-6.5c-3.1,4.1-4.7,8-4.7,8.1l.6.2c0-.1,5.6-14,16.8-16.6,6.9-1.6,14.6,1.3,22.7,8.7h0s0,5.1,0,5.1h4.6c0,4.9,0,11.4,0,11.4h10.2v-5.3l-5.4-6.1h14.3v9.9c0,1.7,1.4,3,3,3h39.7c1.7,0,3-1.4,3-3v-9.9h1.1c-.5,1.6-.8,3.3-.8,5.1s0,0,0,0h3.9s0,0,0,0c0-1.8.4-3.5,1-5.1,1.6-3.8,5-6.9,9.2-8.1,1.4-.4,2.9-.6,4.4-.6s3,.2,4.4.6c4.2,1.3,7.6,4.3,9.2,8.1.4,1,.7,2,.9,3,.1.7.2,1.4.2,2.1s0,0,0,0h3.6s0,0,0,0c0-.7,0-1.4.2-2.1.2-1.1.5-2.1.9-3,1.6-3.8,5-6.9,9.2-8.1,1.4-.4,2.9-.6,4.4-.6s3,.2,4.4.6c4.2,1.3,7.6,4.3,9.2,8.1.7,1.6,1,3.3,1,5.1s0,0,0,0h3.9s0,0,0,0c0-1.8-.3-3.5-.8-5.1Z"/>
        </g>
      </g>
    </g>
  </g>
  <g>
    <path class="st1" d="M164,84.4h12.7v45.5h-12.7v-45.5ZM210.6,113.4h-28.8v-11.2h28.8v-17.7h12.7v45.5h-12.7v-16.6Z"/>
    <path class="st1" d="M298.4,129.9h-15l-20.3-33.6-20.2,33.6h-15l28.6-45.5h13.2l28.6,45.5Z"/>
    <path class="st1" d="M359.9,116.7c0,7.7-5.7,13.2-13.8,13.2h-31.6c-8.1,0-13.9-5.5-13.9-13.2v-32.3h12.7v30.4c0,2.2,1.6,3.8,3.8,3.8h26.1c2.3,0,3.9-1.6,3.9-3.8v-30.4h12.7v32.3Z"/>
    <path class="st1" d="M382.1,118.7h40.9v11.2h-53.6v-45.5h12.7v34.3Z"/>
  </g>
</svg>